<?xml version="1.0" encoding="utf-8"?>
<!-- Generator: Adobe Illustrator 19.0.0, SVG Export Plug-In . SVG Version: 6.00 Build 0)  -->
<svg version="1.1" id="Layer_1" xmlns="http://www.w3.org/2000/svg" xmlns:xlink="http://www.w3.org/1999/xlink" x="0px" y="0px"
	 viewBox="0 0 600 600" style="enable-background:new 0 0 600 600;" xml:space="preserve">
<style type="text/css">
	.st0{fill:none;stroke:#1D1D1B;stroke-width:3;stroke-miterlimit:10;}
	.st1{fill:#1D1D1B;}
	.st2{fill:#C71D28;}
	.st3{enable-background:new    ;}
	.st4{fill:#010000;}
	.st5{clip-path:url(#XMLID_19_);enable-background:new    ;}
	.st6{clip-path:url(#XMLID_20_);enable-background:new    ;}
	.st7{clip-path:url(#XMLID_21_);enable-background:new    ;}
	.st8{clip-path:url(#XMLID_23_);enable-background:new    ;}
	.st9{clip-path:url(#XMLID_24_);enable-background:new    ;}
	.st10{clip-path:url(#XMLID_27_);enable-background:new    ;}
	.st11{clip-path:url(#XMLID_28_);enable-background:new    ;}
	.st12{clip-path:url(#XMLID_29_);enable-background:new    ;}
	.st13{clip-path:url(#XMLID_31_);enable-background:new    ;}
	.st14{clip-path:url(#XMLID_34_);enable-background:new    ;}
	.st15{clip-path:url(#XMLID_35_);enable-background:new    ;}
	.st16{clip-path:url(#XMLID_65_);enable-background:new    ;}
	.st17{clip-path:url(#XMLID_68_);enable-background:new    ;}
	.st18{clip-path:url(#XMLID_73_);enable-background:new    ;}
	.st19{clip-path:url(#XMLID_74_);enable-background:new    ;}
	.st20{clip-path:url(#XMLID_76_);enable-background:new    ;}
	.st21{clip-path:url(#XMLID_78_);enable-background:new    ;}
	.st22{clip-path:url(#XMLID_82_);enable-background:new    ;}
	.st23{clip-path:url(#XMLID_83_);enable-background:new    ;}
	.st24{clip-path:url(#XMLID_84_);enable-background:new    ;}
	.st25{clip-path:url(#XMLID_87_);enable-background:new    ;}
	.st26{clip-path:url(#XMLID_88_);enable-background:new    ;}
	.st27{clip-path:url(#XMLID_89_);enable-background:new    ;}
	.st28{clip-path:url(#XMLID_91_);enable-background:new    ;}
	.st29{clip-path:url(#XMLID_92_);enable-background:new    ;}
	.st30{clip-path:url(#XMLID_93_);enable-background:new    ;}
	.st31{clip-path:url(#XMLID_94_);enable-background:new    ;}
	.st32{clip-path:url(#XMLID_95_);enable-background:new    ;}
	.st33{clip-path:url(#XMLID_96_);enable-background:new    ;}
	.st34{clip-path:url(#XMLID_97_);enable-background:new    ;}
	.st35{clip-path:url(#XMLID_98_);enable-background:new    ;}
	.st36{clip-path:url(#XMLID_99_);enable-background:new    ;}
	.st37{clip-path:url(#XMLID_100_);enable-background:new    ;}
	.st38{clip-path:url(#XMLID_101_);enable-background:new    ;}
	.st39{clip-path:url(#XMLID_102_);enable-background:new    ;}
	.st40{clip-path:url(#XMLID_103_);enable-background:new    ;}
	.st41{clip-path:url(#XMLID_106_);enable-background:new    ;}
	.st42{display:none;fill:none;}
	.st43{fill:none;stroke:#E20613;stroke-miterlimit:10;}
	.st44{fill:#71030A;}
	.st45{fill:#C40510;}
	.st46{fill:#1D1D1D;}
</style>
<line id="XMLID_16_" class="st0" x1="367.4" y1="392.5" x2="228" y2="209.2"/>
<g id="XMLID_14_">
	<g id="XMLID_32_">
		<path id="XMLID_54_" class="st1" d="M467.4,429.6c6.4,9,17.2,20,14.2,32.1c-2.8,11-14.6,18.7-25.4,19.9
			c-11.8,1.3-19.5-7-26.3-15.4c-9-11.1-17.8-22.4-27-33.4c-2.3-2.7-6.1,1.2-3.9,3.9c10.7,12.7,20.3,26.4,31.5,38.7
			c8.5,9.3,19.2,14,31.7,10.6c11.2-3.1,22.3-11.7,24.9-23.5c3.1-13.8-7.6-25.3-14.9-35.7C470.1,423.9,465.3,426.7,467.4,429.6
			L467.4,429.6z"/>
	</g>
</g>
<g id="XMLID_13_">
	<g id="XMLID_58_">
		<g id="XMLID_66_">
			<path id="XMLID_69_" class="st2" d="M350.6,239.9c0.2,4.6,0.2,9.2,0,13.8l-5.6-5.1l-1.6,1.6l-0.8,0.8l-1,1
				c-1.5,1.5-3.1,3-4.6,4.5c-12.5,11.9-25.9,22.5-40,32.1c-14.1,9.6-28.8,18.1-44.2,25.4c-7.7,3.6-15.6,6.9-23.6,9.8
				c-8,2.9-16.3,5.4-24.7,7.2c-8.4,1.8-17,3.1-25.9,3.2c-4.4,0-8.9-0.2-13.4-1c-4.5-0.8-9-2.1-13.2-4.3c-4.2-2.2-8.2-5.4-11-9.4
				c-2.9-4-4.5-8.8-5.1-13.5c-0.6-4.7-0.2-9.3,0.8-13.6c0.9-4.3,2.3-8.5,3.9-12.5c3.4-7.9,7.7-15.3,12.6-22.2
				c4.8-6.9,10.2-13.4,15.8-19.5c11.3-12.3,23.8-23.3,37.1-33.4c0.9-0.7,1.8-1.3,2.7-2l2.7-2l4.6-3.3c-1.3,0.9-2.6,1.9-3.9,2.9
				c-1.5,1.2-3,2.4-4.5,3.7c1.6-1.2,3.1-2.3,4.6-3.5c1.5-1.2,3.1-2.4,4.6-3.6l-5.2,4.1l-2.5,2.1c-0.8,0.7-1.7,1.4-2.5,2.1
				c-12.6,10.8-24.3,22.5-34.7,35.2c-5.2,6.4-10.1,13-14.3,19.9c-2.2,3.5-4.1,7-5.9,10.6c-1.8,3.6-3.4,7.3-4.7,11.1
				c-1.3,3.8-2.3,7.6-2.9,11.4c-0.6,3.8-0.6,7.6,0,11.1c0.6,3.5,2,6.7,4.1,9.4c2.1,2.6,4.9,4.6,8.1,6.1c5.1,2.3,11,3.1,17.1,3.1
				c1.6,0,3.2-0.1,4.8-0.2c7.7-0.5,15.5-2.1,23.2-4.3c7.7-2.2,15.2-4.9,22.6-8.1c7.4-3.2,14.6-6.7,21.7-10.6
				c14.1-7.7,27.7-16.7,40.4-26.5c12.8-9.8,24.8-20.6,35.6-32.2c1.4-1.4,2.7-2.9,4-4.4l0.9-1l0.7-0.8l1.4-1.5l-5.6-5.1
				c4.2-0.2,8.5-0.6,12.9-1c2.2-0.2,4.4-0.4,6.7-0.7l6.8-0.8c0.3,2.3,0.6,4.6,0.8,6.9C350.4,235.3,350.5,237.6,350.6,239.9z"/>
		</g>
	</g>
</g>
<g id="XMLID_9_">
	<g id="XMLID_56_">
		<g id="XMLID_64_">
			<path id="XMLID_67_" class="st2" d="M333.9,149.1c0.8,0,1.5,0,2.3,0c4.8,0.2,9.6,0.8,14.5,2.2c4.9,1.4,9.9,3.7,14.3,7.3
				c0.6,0.4,1.1,0.9,1.6,1.4l1.5,1.5c1,1.1,1.9,2.2,2.8,3.4c0.8,1.2,1.6,2.5,2.3,3.8l0.9,2l0.5,1l0.4,1c2,5.5,2.5,11.2,2.2,16.5
				c-0.3,5.3-1.4,10.3-2.8,15.1c-1.4,4.7-3.3,9.2-5.3,13.6l-1.6,3.3c-0.5,1.1-1.1,2.1-1.7,3.2c-0.6,1.1-1.2,2.1-1.8,3.1l-1.8,3.1
				c-0.5-2.9-1-5.7-1.6-8.5c-0.6-2.8-1.2-5.4-1.9-8c-2.5,0.8-5.2,1.5-7.8,2c-2.6,0.6-5.3,1-8,1.3l1.8-2.4c0.6-0.8,1.2-1.6,1.7-2.5
				c0.6-0.8,1.2-1.6,1.7-2.5l1.6-2.5c2-3.3,3.8-6.7,5.3-10.1c1.4-3.4,2.5-6.8,3.1-10.1c0.6-3.3,0.6-6.4-0.1-9.2
				c-0.6-2.8-1.9-5.2-4-7.4c-2-2.1-4.8-3.9-8.1-5.2c-3.3-1.3-7-2.2-10.8-2.8c-3.6-0.5-7.4-0.7-11.2-0.7c-0.3,0-0.5,0-0.8,0
				c-4.1,0.1-8.2,0.4-12.3,0.9c-8.3,1-16.5,2.8-24.7,5c-8.2,2.2-16.3,5-24.3,8.1c-8,3.1-15.8,6.7-23.5,10.5l-4.7,2.4l-1.9,1l0.4,0.6
				c-1.5,0.6-3.1,1.2-4.6,1.9c-1.5,0.7-3,1.4-4.4,2.2c-2.9,1.5-5.7,3.2-8.4,5c2.7-1.8,5.3-3.8,7.9-5.8c1.3-1,2.6-2,3.9-3.1
				c1.3-1,2.6-2.1,3.8-3.2l0.4,0.6l1.8-1.2l4.4-2.9c7.3-4.7,14.9-9.1,22.6-13.1c7.7-4,15.7-7.7,23.9-10.9c8.2-3.2,16.7-6,25.4-8
				c4.4-1,8.8-1.8,13.4-2.4C326.1,149.4,330,149.1,333.9,149.1z"/>
		</g>
	</g>
</g>
<g id="XMLID_8_">
	<g id="XMLID_124_">
		<g id="XMLID_127_" class="st3">
			<g id="XMLID_661_">
				<polygon id="XMLID_662_" class="st4" points="195.1,193 196.9,194.8 194.5,193.3 192.7,191.5 				"/>
			</g>
			<g id="XMLID_659_">
				<polygon id="XMLID_660_" class="st4" points="200.4,187.9 202.2,189.8 199.9,188.2 198.1,186.4 				"/>
			</g>
			<g id="XMLID_657_">
				<path id="XMLID_658_" class="st4" d="M192.7,191.5c1.7-1.7,3.5-3.4,5.4-5l2.3,1.5c-1.9,1.6-3.7,3.3-5.4,5L192.7,191.5z"/>
			</g>
			<g id="XMLID_650_" class="st3">
				<defs>
					<path id="XMLID_656_" class="st3" d="M200.4,187.9l1.8,1.8c-1.9,1.6-3.7,3.3-5.4,5l-1.8-1.8
						C196.8,191.3,198.6,189.6,200.4,187.9z"/>
				</defs>
				<clipPath id="XMLID_19_">
					<use xlink:href="#XMLID_656_"  style="overflow:visible;"/>
				</clipPath>
				<g id="XMLID_651_" class="st5">
					<path id="XMLID_655_" class="st4" d="M200.4,187.9l1.8,1.8c-0.1,0.1-0.1,0.1-0.2,0.2l-1.8-1.8
						C200.3,188.1,200.4,188,200.4,187.9"/>
					<path id="XMLID_654_" class="st4" d="M200.3,188.1l1.8,1.8c-0.8,0.7-1.6,1.4-2.4,2.2l-1.8-1.8
						C198.7,189.5,199.4,188.8,200.3,188.1"/>
					<path id="XMLID_653_" class="st4" d="M197.9,190.3l1.8,1.8c-0.8,0.7-1.5,1.4-2.3,2.2l-1.8-1.8
						C196.3,191.7,197.1,191,197.9,190.3"/>
					<path id="XMLID_652_" class="st4" d="M195.6,192.4l1.8,1.8c-0.2,0.2-0.4,0.4-0.5,0.5l-1.8-1.8
						C195.2,192.8,195.4,192.6,195.6,192.4"/>
				</g>
			</g>
			<g id="XMLID_648_">
				<path id="XMLID_649_" class="st4" d="M190.1,198.2l-2.3-1.5c0.2-0.3,0.5-0.5,0.7-0.8c0.1-0.1,0.3-0.3,0.4-0.4c0,0,0,0,0.1-0.1
					c1.2-1.3,2.5-2.6,3.8-3.9l2.3,1.5C193.3,194.7,191.7,196.4,190.1,198.2z"/>
			</g>
			<g id="XMLID_646_">
				<polygon id="XMLID_647_" class="st4" points="190.1,198.2 191.9,200 189.6,198.5 187.8,196.7 				"/>
			</g>
			<g id="XMLID_640_" class="st3">
				<defs>
					<path id="XMLID_645_" class="st3" d="M195.1,193l1.8,1.8c-1.7,1.7-3.4,3.5-4.9,5.2l-1.8-1.8C191.7,196.4,193.3,194.7,195.1,193
						z"/>
				</defs>
				<clipPath id="XMLID_20_">
					<use xlink:href="#XMLID_645_"  style="overflow:visible;"/>
				</clipPath>
				<g id="XMLID_641_" class="st6">
					<path id="XMLID_644_" class="st4" d="M195.1,193l1.8,1.8c-0.5,0.5-1.1,1.1-1.6,1.6l-1.8-1.8C194,194.1,194.5,193.5,195.1,193"
						/>
					<path id="XMLID_643_" class="st4" d="M193.4,194.6l1.8,1.8c-0.7,0.7-1.4,1.5-2.1,2.2l-1.8-1.8
						C192,196.1,192.7,195.3,193.4,194.6"/>
					<path id="XMLID_642_" class="st4" d="M191.3,196.8l1.8,1.8c-0.4,0.4-0.8,0.9-1.2,1.3l-1.8-1.8
						C190.5,197.7,190.9,197.3,191.3,196.8"/>
				</g>
			</g>
			<g id="XMLID_638_">
				<polygon id="XMLID_639_" class="st4" points="206.7,182.8 208.5,184.6 206.1,183.1 204.3,181.3 				"/>
			</g>
			<g id="XMLID_632_" class="st3">
				<defs>
					<path id="XMLID_637_" class="st3" d="M206.7,182.8l1.8,1.8c-2.1,1.7-4.2,3.4-6.2,5.2l-1.8-1.8
						C202.5,186.2,204.5,184.4,206.7,182.8z"/>
				</defs>
				<clipPath id="XMLID_21_">
					<use xlink:href="#XMLID_637_"  style="overflow:visible;"/>
				</clipPath>
				<g id="XMLID_633_" class="st7">
					<path id="XMLID_636_" class="st4" d="M206.7,182.8l1.8,1.8c-0.4,0.3-0.8,0.7-1.3,1l-1.8-1.8
						C205.8,183.4,206.3,183.1,206.7,182.8"/>
					<path id="XMLID_635_" class="st4" d="M205.4,183.8l1.8,1.8c-0.9,0.7-1.8,1.4-2.6,2.2l-1.8-1.8
						C203.7,185.2,204.5,184.5,205.4,183.8"/>
					<path id="XMLID_634_" class="st4" d="M202.8,185.9l1.8,1.8c-0.8,0.7-1.6,1.3-2.4,2l-1.8-1.8C201.2,187.3,202,186.6,202.8,185.9
						"/>
				</g>
			</g>
			<g id="XMLID_630_">
				<path id="XMLID_631_" class="st4" d="M198.1,186.4c2-1.8,4.1-3.5,6.2-5.2l2.3,1.5c-2.1,1.7-4.2,3.4-6.2,5.2L198.1,186.4z"/>
			</g>
			<g id="XMLID_628_">
				<path id="XMLID_629_" class="st4" d="M185.2,204.1l-2.3-1.5c1.5-1.9,3-3.8,4.7-5.7c0-0.1,0.1-0.1,0.1-0.2c0,0,0,0,0,0
					c0,0,0,0,0,0l2.3,1.5C188.4,200.1,186.8,202.1,185.2,204.1z"/>
			</g>
			<g id="XMLID_622_" class="st3">
				<defs>
					<path id="XMLID_627_" class="st3" d="M190.1,198.2l1.8,1.8c-1.7,2-3.4,3.9-4.9,5.9l-1.8-1.8
						C186.8,202.1,188.4,200.1,190.1,198.2z"/>
				</defs>
				<clipPath id="XMLID_23_">
					<use xlink:href="#XMLID_627_"  style="overflow:visible;"/>
				</clipPath>
				<g id="XMLID_623_" class="st8">
					<path id="XMLID_626_" class="st4" d="M190.1,198.2l1.8,1.8c-0.3,0.3-0.5,0.6-0.8,0.9l-1.8-1.8
						C189.6,198.8,189.9,198.5,190.1,198.2"/>
					<path id="XMLID_625_" class="st4" d="M189.3,199.1l1.8,1.8c-0.7,0.8-1.4,1.6-2,2.4l-1.8-1.8
						C187.9,200.7,188.6,199.9,189.3,199.1"/>
					<path id="XMLID_624_" class="st4" d="M187.3,201.5l1.8,1.8c-0.7,0.9-1.4,1.7-2,2.6l-1.8-1.8
						C185.9,203.2,186.6,202.4,187.3,201.5"/>
				</g>
			</g>
			<g id="XMLID_620_">
				<polygon id="XMLID_621_" class="st4" points="185.2,204.1 187,205.9 184.7,204.4 182.9,202.6 				"/>
			</g>
			<g id="XMLID_618_">
				<polygon id="XMLID_619_" class="st4" points="214.3,177.3 216.1,179.1 213.8,177.6 212,175.8 				"/>
			</g>
			<g id="XMLID_616_">
				<path id="XMLID_617_" class="st4" d="M212,175.8l2.3,1.5c-0.1,0.1-0.2,0.1-0.3,0.2c-0.1,0.1-0.2,0.1-0.3,0.2
					c-2.4,1.6-4.7,3.3-7,5.1l-2.3-1.5c1.1-0.8,2.1-1.6,3.2-2.4c0,0,0.1-0.1,0.1-0.1c0.1-0.1,0.2-0.2,0.4-0.3c0.1,0,0.1-0.1,0.2-0.1
					c0.1-0.1,0.2-0.2,0.4-0.3c0,0,0.1,0,0.1-0.1C209.8,177.3,210.9,176.5,212,175.8z"/>
			</g>
			<g id="XMLID_609_" class="st3">
				<defs>
					<path id="XMLID_615_" class="st3" d="M214.3,177.3l1.8,1.8c-0.1,0.1-0.2,0.1-0.3,0.2c-0.1,0.1-0.2,0.1-0.3,0.2
						c-2.4,1.6-4.7,3.3-7,5.1l-1.8-1.8c2.3-1.8,4.6-3.5,7-5.1c0.1-0.1,0.2-0.1,0.3-0.2C214.1,177.4,214.2,177.3,214.3,177.3z"/>
				</defs>
				<clipPath id="XMLID_24_">
					<use xlink:href="#XMLID_615_"  style="overflow:visible;"/>
				</clipPath>
				<g id="XMLID_610_" class="st9">
					<path id="XMLID_614_" class="st4" d="M214.3,177.3l1.8,1.8c0,0,0,0,0,0L214.3,177.3C214.3,177.3,214.3,177.3,214.3,177.3"/>
					<path id="XMLID_613_" class="st4" d="M214.3,177.3l1.8,1.8c-0.1,0.1-0.2,0.1-0.3,0.2c-0.1,0.1-0.2,0.1-0.3,0.2
						c-0.9,0.6-1.7,1.2-2.6,1.8l-1.8-1.8c0.9-0.6,1.7-1.2,2.6-1.8c0.1-0.1,0.2-0.1,0.3-0.2C214.1,177.4,214.2,177.4,214.3,177.3"/>
					<path id="XMLID_612_" class="st4" d="M211.1,179.5l1.8,1.8c-1,0.7-1.9,1.4-2.9,2.1l-1.8-1.8
						C209.1,180.9,210.1,180.2,211.1,179.5"/>
					<path id="XMLID_611_" class="st4" d="M208.1,181.7l1.8,1.8c-0.5,0.4-1,0.7-1.5,1.1l-1.8-1.8C207.2,182.4,207.7,182,208.1,181.7
						"/>
				</g>
			</g>
			<g id="XMLID_607_">
				<path id="XMLID_608_" class="st4" d="M222.4,169.5l2.3,1.5c-1.4,0.8-2.9,1.6-4.3,2.4c0,0-0.1,0-0.1,0c-0.2,0.1-0.3,0.2-0.5,0.3
					c-0.1,0.1-0.2,0.1-0.3,0.2c-0.1,0.1-0.2,0.1-0.3,0.2c0,0,0,0,0,0c0,0,0,0-0.1,0c-0.1,0-0.2,0.1-0.2,0.1c-0.1,0-0.2,0.1-0.2,0.1
					c0,0,0,0,0,0c-0.1,0-0.1,0.1-0.2,0.1c-0.1,0.1-0.2,0.1-0.3,0.2c0,0-0.1,0-0.1,0.1c0,0,0,0-0.1,0c-0.1,0.1-0.2,0.1-0.3,0.2
					c-0.1,0-0.2,0.1-0.2,0.1c0,0,0,0,0,0c0,0,0,0,0,0c-0.1,0.1-0.3,0.2-0.4,0.3c-0.1,0-0.1,0.1-0.2,0.1c-0.1,0.1-0.3,0.2-0.4,0.3
					c-0.1,0-0.1,0.1-0.2,0.1c-0.1,0.1-0.3,0.2-0.4,0.3c-0.1,0-0.2,0.1-0.2,0.1c-0.1,0.1-0.2,0.2-0.4,0.2c-0.1,0.1-0.2,0.1-0.3,0.2
					c0,0-0.1,0.1-0.1,0.1c-0.1,0.1-0.3,0.2-0.4,0.3c-0.1,0-0.1,0.1-0.2,0.1l-2.3-1.5C215.4,173.5,218.9,171.4,222.4,169.5z"/>
			</g>
			<g id="XMLID_598_" class="st3">
				<defs>
					<path id="XMLID_606_" class="st3" d="M224.7,171l1.8,1.8c-1.4,0.8-2.9,1.6-4.3,2.4c0,0-0.1,0-0.1,0c-0.2,0.1-0.3,0.2-0.5,0.3
						c-0.1,0.1-0.2,0.1-0.3,0.2c-0.1,0.1-0.2,0.1-0.3,0.2c0,0,0,0,0,0c0,0,0,0-0.1,0c-0.1,0-0.2,0.1-0.2,0.1c-0.1,0-0.2,0.1-0.2,0.1
						c0,0,0,0,0,0c-0.1,0-0.1,0.1-0.2,0.1c-0.1,0.1-0.2,0.1-0.3,0.2c0,0-0.1,0-0.1,0.1c0,0,0,0-0.1,0c-0.1,0.1-0.2,0.1-0.3,0.2
						c-0.1,0-0.2,0.1-0.2,0.1c0,0,0,0,0,0c0,0,0,0,0,0c-0.1,0.1-0.3,0.2-0.4,0.3c-0.1,0-0.1,0.1-0.2,0.1c-0.1,0.1-0.3,0.2-0.4,0.3
						c-0.1,0-0.1,0.1-0.2,0.1c-0.1,0.1-0.3,0.2-0.4,0.3c-0.1,0-0.2,0.1-0.2,0.1c-0.1,0.1-0.2,0.2-0.4,0.2c-0.1,0.1-0.2,0.1-0.3,0.2
						c0,0-0.1,0.1-0.1,0.1c-0.1,0.1-0.3,0.2-0.4,0.3c-0.1,0-0.1,0.1-0.2,0.1l-1.8-1.8c0.1,0,0.1-0.1,0.2-0.1
						c0.1-0.1,0.3-0.2,0.4-0.3c0,0,0.1-0.1,0.1-0.1c0.1-0.1,0.2-0.1,0.3-0.2c0.1-0.1,0.2-0.2,0.4-0.2c0.1,0,0.2-0.1,0.2-0.1
						c0.1-0.1,0.3-0.2,0.4-0.3c0.1,0,0.1-0.1,0.2-0.1c0.1-0.1,0.3-0.2,0.4-0.3c0.1,0,0.1-0.1,0.2-0.1c0.1-0.1,0.3-0.2,0.4-0.3
						c0,0,0,0,0,0c0,0,0,0,0,0c0.1,0,0.2-0.1,0.2-0.1c0.1-0.1,0.2-0.1,0.3-0.2c0,0,0,0,0.1,0c0,0,0.1,0,0.1-0.1
						c0.1-0.1,0.2-0.1,0.3-0.2c0.1,0,0.1-0.1,0.2-0.1c0,0,0,0,0,0c0.1,0,0.2-0.1,0.2-0.1c0.1,0,0.2-0.1,0.2-0.1c0,0,0,0,0.1,0
						c0,0,0,0,0,0c0.1-0.1,0.2-0.1,0.3-0.2c0.1-0.1,0.2-0.1,0.3-0.2c0.2-0.1,0.3-0.2,0.5-0.3c0,0,0.1,0,0.1,0
						C221.9,172.6,223.3,171.8,224.7,171z"/>
				</defs>
				<clipPath id="XMLID_27_">
					<use xlink:href="#XMLID_606_"  style="overflow:visible;"/>
				</clipPath>
				<g id="XMLID_599_" class="st10">
					<path id="XMLID_605_" class="st4" d="M224.7,171l1.8,1.8c0,0-0.1,0.1-0.1,0.1l-1.8-1.8C224.6,171.1,224.7,171,224.7,171"/>
					<path id="XMLID_604_" class="st4" d="M224.6,171.1l1.8,1.8c-1.2,0.7-2.5,1.3-3.7,2.1l-1.8-1.8
						C222.1,172.4,223.4,171.7,224.6,171.1"/>
					<path id="XMLID_603_" class="st4" d="M220.9,173.1l1.8,1.8c-0.1,0.1-0.3,0.2-0.4,0.3c0,0-0.1,0-0.1,0c-0.2,0.1-0.3,0.2-0.5,0.3
						c-0.1,0.1-0.2,0.1-0.3,0.2c-0.1,0.1-0.2,0.1-0.3,0.2c0,0,0,0,0,0c0,0,0,0-0.1,0c-0.1,0-0.2,0.1-0.2,0.1c-0.1,0-0.2,0.1-0.2,0.1
						c0,0,0,0,0,0c-0.1,0-0.1,0.1-0.2,0.1c-0.1,0.1-0.2,0.1-0.3,0.2c0,0-0.1,0-0.1,0.1c0,0,0,0-0.1,0c-0.1,0.1-0.2,0.1-0.3,0.2
						c-0.1,0-0.2,0.1-0.2,0.1c0,0,0,0,0,0c0,0,0,0,0,0l-1.8-1.8c0,0,0,0,0,0c0,0,0,0,0,0c0.1,0,0.2-0.1,0.2-0.1
						c0.1-0.1,0.2-0.1,0.3-0.2c0,0,0,0,0.1,0c0,0,0.1,0,0.1-0.1c0.1-0.1,0.2-0.1,0.3-0.2c0.1,0,0.1-0.1,0.2-0.1c0,0,0,0,0,0
						c0.1,0,0.2-0.1,0.2-0.1c0.1,0,0.2-0.1,0.2-0.1c0,0,0,0,0.1,0c0,0,0,0,0,0c0.1-0.1,0.2-0.1,0.3-0.2c0.1-0.1,0.2-0.1,0.3-0.2
						c0.2-0.1,0.3-0.2,0.5-0.3c0,0,0.1,0,0.1,0C220.6,173.3,220.8,173.2,220.9,173.1"/>
					<path id="XMLID_602_" class="st4" d="M217.5,175.2l1.8,1.8c0,0,0,0,0,0L217.5,175.2C217.5,175.2,217.5,175.2,217.5,175.2"/>
					<path id="XMLID_601_" class="st4" d="M217.5,175.2l1.8,1.8c0,0,0,0,0,0c0,0,0,0,0,0L217.5,175.2
						C217.4,175.2,217.5,175.2,217.5,175.2C217.5,175.2,217.5,175.2,217.5,175.2"/>
					<path id="XMLID_600_" class="st4" d="M217.4,175.3l1.8,1.8c-0.1,0.1-0.3,0.2-0.4,0.2c-0.1,0-0.1,0.1-0.2,0.1
						c-0.1,0.1-0.3,0.2-0.4,0.3c-0.1,0-0.1,0.1-0.2,0.1c-0.1,0.1-0.3,0.2-0.4,0.3c-0.1,0-0.2,0.1-0.2,0.1c-0.1,0.1-0.2,0.2-0.4,0.2
						c-0.1,0.1-0.2,0.1-0.3,0.2c0,0-0.1,0.1-0.1,0.1c-0.1,0.1-0.3,0.2-0.4,0.3c-0.1,0-0.1,0.1-0.2,0.1l-1.8-1.8
						c0.1,0,0.1-0.1,0.2-0.1c0.1-0.1,0.3-0.2,0.4-0.3c0,0,0.1-0.1,0.1-0.1c0.1-0.1,0.2-0.1,0.3-0.2c0.1-0.1,0.2-0.2,0.4-0.2
						c0.1,0,0.2-0.1,0.2-0.1c0.1-0.1,0.3-0.2,0.4-0.3c0.1,0,0.1-0.1,0.2-0.1c0.1-0.1,0.3-0.2,0.4-0.3c0.1,0,0.1-0.1,0.2-0.1
						C217.2,175.4,217.3,175.3,217.4,175.3"/>
				</g>
			</g>
			<g id="XMLID_596_">
				<polygon id="XMLID_597_" class="st4" points="243.4,163.4 245.2,165.2 242.9,163.7 241.1,161.9 				"/>
			</g>
			<g id="XMLID_589_" class="st3">
				<defs>
					<path id="XMLID_595_" class="st3" d="M243.4,163.4l1.8,1.8c-0.2,0-0.3,0.1-0.5,0.1c0,0-0.1,0-0.1,0c-0.2,0-0.3,0.1-0.5,0.1
						c0,0-0.1,0-0.1,0c-0.2,0-0.3,0.1-0.4,0.1c-0.1,0-0.1,0-0.2,0.1c-0.1,0-0.3,0.1-0.4,0.1c-0.1,0-0.2,0.1-0.3,0.1
						c-0.1,0-0.1,0-0.1,0c-0.2,0.1-0.3,0.1-0.5,0.2c-0.2,0.1-0.4,0.1-0.6,0.2c0,0-0.1,0-0.1,0c-0.2,0.1-0.3,0.1-0.5,0.2
						c0,0-0.1,0-0.1,0c-0.2,0.1-0.4,0.1-0.6,0.2c-4.6,1.6-9.2,3.7-13.8,6.1l-1.8-1.8c4.6-2.4,9.2-4.5,13.8-6.1
						c0.2-0.1,0.4-0.1,0.6-0.2c0,0,0.1,0,0.1,0c0.2-0.1,0.3-0.1,0.5-0.2c0,0,0.1,0,0.1,0c0.2-0.1,0.4-0.1,0.6-0.2
						c0.2-0.1,0.3-0.1,0.5-0.2c0,0,0.1,0,0.1,0c0.1,0,0.2-0.1,0.3-0.1c0.1,0,0.2-0.1,0.4-0.1c0.1,0,0.1,0,0.2-0.1
						c0.1,0,0.3-0.1,0.4-0.1c0,0,0.1,0,0.1,0c0.1,0,0.3-0.1,0.5-0.1c0,0,0.1,0,0.1,0C243.1,163.5,243.3,163.4,243.4,163.4z"/>
				</defs>
				<clipPath id="XMLID_28_">
					<use xlink:href="#XMLID_595_"  style="overflow:visible;"/>
				</clipPath>
				<g id="XMLID_590_" class="st11">
					<path id="XMLID_594_" class="st4" d="M243.4,163.4l1.8,1.8c-0.2,0-0.3,0.1-0.5,0.1c0,0-0.1,0-0.1,0c-0.2,0-0.3,0.1-0.5,0.1
						c0,0-0.1,0-0.1,0c-0.2,0-0.3,0.1-0.4,0.1c-0.1,0-0.1,0-0.2,0.1c-0.1,0-0.3,0.1-0.4,0.1c-0.1,0-0.2,0.1-0.3,0.1
						c-0.1,0-0.1,0-0.1,0c-0.2,0.1-0.3,0.1-0.5,0.2c-0.2,0.1-0.4,0.1-0.6,0.2c0,0-0.1,0-0.1,0c-0.1,0-0.2,0.1-0.3,0.1l-1.8-1.8
						c0.1,0,0.2-0.1,0.3-0.1c0,0,0.1,0,0.1,0c0.2-0.1,0.4-0.1,0.6-0.2c0.2-0.1,0.3-0.1,0.5-0.2c0,0,0.1,0,0.1,0
						c0.1,0,0.2-0.1,0.3-0.1c0.1,0,0.2-0.1,0.4-0.1c0.1,0,0.1,0,0.2-0.1c0.1,0,0.3-0.1,0.4-0.1c0,0,0.1,0,0.1,0
						c0.1,0,0.3-0.1,0.5-0.1c0,0,0.1,0,0.1,0C243.1,163.5,243.3,163.4,243.4,163.4"/>
					<path id="XMLID_593_" class="st4" d="M239.3,164.6l1.8,1.8c-0.1,0-0.1,0-0.2,0.1c0,0-0.1,0-0.1,0c-0.2,0.1-0.4,0.1-0.6,0.2
						c-1.7,0.6-3.3,1.2-5,1.9l-1.8-1.8c1.7-0.7,3.4-1.3,5-1.9c0.2-0.1,0.4-0.1,0.6-0.2c0,0,0.1,0,0.1,0
						C239.2,164.7,239.3,164.7,239.3,164.6"/>
					<path id="XMLID_592_" class="st4" d="M233.5,166.9l1.8,1.8c-1.6,0.7-3.1,1.4-4.7,2.1l-1.8-1.8
						C230.3,168.2,231.9,167.5,233.5,166.9"/>
					<path id="XMLID_591_" class="st4" d="M228.8,169l1.8,1.8c-1.3,0.6-2.7,1.3-4,2l-1.8-1.8C226.1,170.3,227.4,169.6,228.8,169"/>
				</g>
			</g>
			<g id="XMLID_587_">
				<path id="XMLID_588_" class="st4" d="M240.4,162.1C240.4,162.1,240.5,162,240.4,162.1c0.3-0.1,0.5-0.1,0.7-0.2l2.3,1.5
					c-0.2,0-0.3,0.1-0.5,0.1c0,0-0.1,0-0.1,0c-0.2,0-0.3,0.1-0.5,0.1c0,0-0.1,0-0.1,0c-0.2,0-0.3,0.1-0.4,0.1c-0.1,0-0.1,0-0.2,0.1
					c-0.1,0-0.3,0.1-0.4,0.1c-0.1,0-0.2,0.1-0.3,0.1c-0.1,0-0.1,0-0.1,0c-0.2,0.1-0.3,0.1-0.5,0.2c-0.2,0.1-0.4,0.1-0.6,0.2
					c0,0-0.1,0-0.1,0c-0.2,0.1-0.3,0.1-0.5,0.2c0,0-0.1,0-0.1,0c-0.2,0.1-0.4,0.1-0.6,0.2c-4.6,1.6-9.2,3.7-13.8,6.1l-2.3-1.5
					c4.2-2.3,8.5-4.2,12.8-5.7c0,0,0.1,0,0.1,0c0.1,0,0.3-0.1,0.4-0.1c0,0,0.1,0,0.1,0c0.2-0.1,0.4-0.2,0.7-0.2
					c0.1,0,0.2-0.1,0.2-0.1c0.1,0,0.2-0.1,0.3-0.1c0.1,0,0.2-0.1,0.3-0.1c0.1,0,0.2-0.1,0.2-0.1c0.1,0,0.2-0.1,0.4-0.1
					c0.1,0,0.2-0.1,0.2-0.1c0.1,0,0.3-0.1,0.4-0.1c0.1,0,0.1,0,0.2-0.1c0.1,0,0.3-0.1,0.4-0.1c0,0,0.1,0,0.1,0
					c0.2,0,0.3-0.1,0.5-0.1c0,0,0.1,0,0.1,0C240.1,162.2,240.2,162.1,240.4,162.1z"/>
			</g>
			<g id="XMLID_583_" class="st3">
				<defs>
					<path id="XMLID_586_" class="st3" d="M244.5,163.1l1.8,1.8c-0.4,0.1-0.7,0.2-1.1,0.3l-1.8-1.8
						C243.8,163.3,244.1,163.2,244.5,163.1z"/>
				</defs>
				<clipPath id="XMLID_29_">
					<use xlink:href="#XMLID_586_"  style="overflow:visible;"/>
				</clipPath>
				<g id="XMLID_584_" class="st12">
					<path id="XMLID_585_" class="st4" d="M244.5,163.1l1.8,1.8c-0.4,0.1-0.7,0.2-1.1,0.3l-1.8-1.8
						C243.8,163.3,244.1,163.2,244.5,163.1"/>
				</g>
			</g>
			<g id="XMLID_579_" class="st3">
				<defs>
					<path id="XMLID_582_" class="st3" d="M247.3,164.6c-0.4,0.1-0.7,0.2-1.1,0.3l-1.8-1.8c0.3-0.1,0.7-0.2,1.1-0.3
						c0.3-0.1,0.7-0.2,1-0.2c0,0,0,0,0.1,0c0.3-0.1,0.6-0.1,0.9-0.2c0,0,0.1,0,0.1,0c0.3-0.1,0.6-0.1,0.9-0.2c0,0,0.1,0,0.1,0
						c0.3-0.1,0.6-0.1,0.9-0.2c0,0,0.1,0,0.1,0c0.3,0,0.5-0.1,0.8-0.1c0,0,0.1,0,0.1,0c0.2,0,0.3,0,0.5-0.1c0.2,0,0.3,0,0.5-0.1
						c0,0,0.1,0,0.1,0c0.1,0,0.2,0,0.3,0c0.1,0,0.1,0,0.2,0c0.1,0,0.2,0,0.3,0c0.1,0,0.1,0,0.2,0c0.1,0,0.3,0,0.4,0
						c0.1,0,0.1,0,0.2,0c0.1,0,0.1,0,0.2,0c0.1,0,0.2,0,0.2,0c0.1,0,0.1,0,0.2,0c0.1,0,0.2,0,0.3,0c0,0,0,0,0.1,0c0,0,0.1,0,0.1,0
						c0.1,0,0.2,0,0.3,0c0.2,0,0.4,0,0.6,0c0,0,0,0,0.1,0c0.1,0,0.2,0,0.3,0c0.6,0.6,1.2,1.2,1.8,1.8c-0.1,0-0.2,0-0.3,0
						c0,0,0,0-0.1,0c-0.2,0-0.4,0-0.6,0c-0.1,0-0.2,0-0.3,0c0,0-0.1,0-0.1,0c0,0,0,0-0.1,0c-0.1,0-0.2,0-0.3,0c-0.1,0-0.1,0-0.2,0
						c-0.1,0-0.2,0-0.2,0c-0.1,0-0.1,0-0.2,0c-0.1,0-0.1,0-0.2,0c-0.1,0-0.3,0-0.4,0c-0.1,0-0.1,0-0.2,0c-0.1,0-0.2,0-0.3,0
						c-0.1,0-0.1,0-0.2,0c-0.1,0-0.2,0-0.3,0c0,0-0.1,0-0.1,0c-0.1,0-0.3,0-0.5,0.1c-0.2,0-0.3,0-0.5,0.1c0,0-0.1,0-0.1,0
						c-0.3,0-0.5,0.1-0.8,0.1c0,0-0.1,0-0.1,0c-0.3,0-0.6,0.1-0.9,0.2c0,0-0.1,0-0.1,0c-0.3,0.1-0.6,0.1-0.9,0.2c0,0-0.1,0-0.1,0
						c-0.3,0.1-0.6,0.1-0.9,0.2c0,0,0,0-0.1,0C248,164.5,247.7,164.6,247.3,164.6z"/>
				</defs>
				<clipPath id="XMLID_31_">
					<use xlink:href="#XMLID_582_"  style="overflow:visible;"/>
				</clipPath>
				<g id="XMLID_580_" class="st13">
					<path id="XMLID_581_" class="st4" d="M261.9,161.7l1.8,1.8c0,0-0.1,0-0.1,0c-0.1,0-0.2,0-0.2,0c-0.1,0-0.1,0-0.2,0
						c-0.1,0-0.1,0-0.1,0c-0.1,0-0.1,0-0.2,0c0,0-0.1,0-0.1,0c0,0-0.1,0-0.1,0c-0.1,0-0.1,0-0.2,0c-0.2,0-0.3,0-0.5-0.1
						c-0.1,0-0.1,0-0.2,0c-0.1,0-0.1,0-0.2,0c-0.4,0-0.8-0.1-1.3-0.1c0,0-0.1,0-0.1,0c-0.5,0-1,0-1.6,0c0,0,0,0-0.1,0
						c-0.4,0-0.9,0-1.3,0c-0.1,0-0.2,0-0.3,0c0,0,0,0-0.1,0c-0.2,0-0.4,0-0.6,0c-0.1,0-0.2,0-0.3,0c0,0-0.1,0-0.1,0c0,0,0,0-0.1,0
						c-0.1,0-0.2,0-0.3,0c-0.1,0-0.1,0-0.2,0c-0.1,0-0.2,0-0.2,0c-0.1,0-0.1,0-0.2,0c-0.1,0-0.1,0-0.2,0c-0.1,0-0.3,0-0.4,0
						c-0.1,0-0.1,0-0.2,0c-0.1,0-0.2,0-0.3,0c-0.1,0-0.1,0-0.2,0c-0.1,0-0.2,0-0.3,0c0,0-0.1,0-0.1,0c-0.1,0-0.3,0-0.5,0.1
						c-0.2,0-0.3,0-0.5,0.1c0,0-0.1,0-0.1,0c-0.3,0-0.5,0.1-0.8,0.1c0,0-0.1,0-0.1,0c-0.3,0-0.6,0.1-0.9,0.2c0,0-0.1,0-0.1,0
						c-0.3,0.1-0.6,0.1-0.9,0.2c0,0-0.1,0-0.1,0c-0.3,0.1-0.6,0.1-0.9,0.2c0,0,0,0-0.1,0c-0.3,0.1-0.7,0.1-1,0.2
						c-0.4,0.1-0.7,0.2-1.1,0.3l-1.8-1.8c0.3-0.1,0.7-0.2,1.1-0.3c0.3-0.1,0.7-0.2,1-0.2c0,0,0,0,0.1,0c0.3-0.1,0.6-0.1,0.9-0.2
						c0,0,0.1,0,0.1,0c0.3-0.1,0.6-0.1,0.9-0.2c0,0,0.1,0,0.1,0c0.3-0.1,0.6-0.1,0.9-0.2c0,0,0.1,0,0.1,0c0.3,0,0.5-0.1,0.8-0.1
						c0,0,0.1,0,0.1,0c0.2,0,0.3,0,0.5-0.1c0.2,0,0.3,0,0.5-0.1c0,0,0.1,0,0.1,0c0.1,0,0.2,0,0.3,0c0.1,0,0.1,0,0.2,0
						c0.1,0,0.2,0,0.3,0c0.1,0,0.1,0,0.2,0c0.1,0,0.3,0,0.4,0c0.1,0,0.1,0,0.2,0c0.1,0,0.1,0,0.2,0c0.1,0,0.2,0,0.2,0
						c0.1,0,0.1,0,0.2,0c0.1,0,0.2,0,0.3,0c0,0,0,0,0.1,0c0,0,0.1,0,0.1,0c0.1,0,0.2,0,0.3,0c0.2,0,0.4,0,0.6,0c0,0,0,0,0.1,0
						c0.1,0,0.2,0,0.3,0c0.4,0,0.9,0,1.3,0c0,0,0,0,0.1,0c0.5,0,1.1,0,1.6,0c0,0,0.1,0,0.1,0c0.4,0,0.9,0,1.3,0.1c0.1,0,0.1,0,0.2,0
						c0.1,0,0.1,0,0.2,0c0.2,0,0.3,0,0.5,0.1c0.1,0,0.1,0,0.2,0c0,0,0.1,0,0.1,0c0,0,0.1,0,0.1,0c0.1,0,0.1,0,0.2,0c0,0,0.1,0,0.1,0
						c0.1,0,0.1,0,0.2,0c0.1,0,0.2,0,0.2,0C261.8,161.7,261.9,161.7,261.9,161.7"/>
				</g>
			</g>
			<g id="XMLID_575_" class="st3">
				<defs>
					<path id="XMLID_578_" class="st3" d="M257.2,163.2c-0.6-0.6-1.2-1.2-1.8-1.8c0,0,0,0,0,0c0,0,0,0,0,0
						C256,161.9,256.6,162.5,257.2,163.2C257.2,163.1,257.2,163.1,257.2,163.2C257.3,163.2,257.3,163.2,257.2,163.2
						C257.2,163.2,257.2,163.2,257.2,163.2z"/>
				</defs>
				<clipPath id="XMLID_34_">
					<use xlink:href="#XMLID_578_"  style="overflow:visible;"/>
				</clipPath>
				<g id="XMLID_576_" class="st14">
					<path id="XMLID_577_" class="st4" d="M261.9,161.7l1.8,1.8c0,0-0.1,0-0.1,0c-0.1,0-0.2,0-0.2,0c-0.1,0-0.1,0-0.2,0
						c-0.1,0-0.1,0-0.1,0c-0.1,0-0.1,0-0.2,0c0,0-0.1,0-0.1,0c0,0-0.1,0-0.1,0c-0.1,0-0.1,0-0.2,0c-0.2,0-0.3,0-0.5-0.1
						c-0.1,0-0.1,0-0.2,0c-0.1,0-0.1,0-0.2,0c-0.4,0-0.8-0.1-1.3-0.1c0,0-0.1,0-0.1,0c-0.5,0-1,0-1.6,0c0,0,0,0-0.1,0
						c-0.4,0-0.9,0-1.3,0c-0.1,0-0.2,0-0.3,0c0,0,0,0-0.1,0c-0.2,0-0.4,0-0.6,0c-0.1,0-0.2,0-0.3,0c0,0-0.1,0-0.1,0c0,0,0,0-0.1,0
						c-0.1,0-0.2,0-0.3,0c-0.1,0-0.1,0-0.2,0c-0.1,0-0.2,0-0.2,0c-0.1,0-0.1,0-0.2,0c-0.1,0-0.1,0-0.2,0c-0.1,0-0.3,0-0.4,0
						c-0.1,0-0.1,0-0.2,0c-0.1,0-0.2,0-0.3,0c-0.1,0-0.1,0-0.2,0c-0.1,0-0.2,0-0.3,0c0,0-0.1,0-0.1,0c-0.1,0-0.3,0-0.5,0.1
						c-0.2,0-0.3,0-0.5,0.1c0,0-0.1,0-0.1,0c-0.3,0-0.5,0.1-0.8,0.1c0,0-0.1,0-0.1,0c-0.3,0-0.6,0.1-0.9,0.2c0,0-0.1,0-0.1,0
						c-0.3,0.1-0.6,0.1-0.9,0.2c0,0-0.1,0-0.1,0c-0.3,0.1-0.6,0.1-0.9,0.2c0,0,0,0-0.1,0c-0.3,0.1-0.7,0.1-1,0.2
						c-0.4,0.1-0.7,0.2-1.1,0.3l-1.8-1.8c0.3-0.1,0.7-0.2,1.1-0.3c0.3-0.1,0.7-0.2,1-0.2c0,0,0,0,0.1,0c0.3-0.1,0.6-0.1,0.9-0.2
						c0,0,0.1,0,0.1,0c0.3-0.1,0.6-0.1,0.9-0.2c0,0,0.1,0,0.1,0c0.3-0.1,0.6-0.1,0.9-0.2c0,0,0.1,0,0.1,0c0.3,0,0.5-0.1,0.8-0.1
						c0,0,0.1,0,0.1,0c0.2,0,0.3,0,0.5-0.1c0.2,0,0.3,0,0.5-0.1c0,0,0.1,0,0.1,0c0.1,0,0.2,0,0.3,0c0.1,0,0.1,0,0.2,0
						c0.1,0,0.2,0,0.3,0c0.1,0,0.1,0,0.2,0c0.1,0,0.3,0,0.4,0c0.1,0,0.1,0,0.2,0c0.1,0,0.1,0,0.2,0c0.1,0,0.2,0,0.2,0
						c0.1,0,0.1,0,0.2,0c0.1,0,0.2,0,0.3,0c0,0,0,0,0.1,0c0,0,0.1,0,0.1,0c0.1,0,0.2,0,0.3,0c0.2,0,0.4,0,0.6,0c0,0,0,0,0.1,0
						c0.1,0,0.2,0,0.3,0c0.4,0,0.9,0,1.3,0c0,0,0,0,0.1,0c0.5,0,1.1,0,1.6,0c0,0,0.1,0,0.1,0c0.4,0,0.9,0,1.3,0.1c0.1,0,0.1,0,0.2,0
						c0.1,0,0.1,0,0.2,0c0.2,0,0.3,0,0.5,0.1c0.1,0,0.1,0,0.2,0c0,0,0.1,0,0.1,0c0,0,0.1,0,0.1,0c0.1,0,0.1,0,0.2,0c0,0,0.1,0,0.1,0
						c0.1,0,0.1,0,0.2,0c0.1,0,0.2,0,0.2,0C261.8,161.7,261.9,161.7,261.9,161.7"/>
				</g>
			</g>
			<g id="XMLID_553_" class="st3">
				<defs>
					<path id="XMLID_574_" class="st3" d="M185.2,204.1l1.8,1.8c-0.1,0.1-0.1,0.2-0.2,0.3c0,0-0.1,0.1-0.1,0.1
						c-0.1,0.1-0.2,0.3-0.3,0.4c0,0-0.1,0.1-0.1,0.1c-0.5,0.7-1,1.3-1.4,2c-0.2,0.2-0.3,0.4-0.4,0.5c0,0-0.1,0.1-0.1,0.1
						c-0.1,0.2-0.2,0.3-0.3,0.5c-0.4,0.5-0.7,1-1,1.5c0,0-0.1,0.1-0.1,0.1c-0.1,0.1-0.2,0.3-0.3,0.4c0,0.1-0.1,0.1-0.1,0.2
						c-0.1,0.1-0.2,0.3-0.2,0.4c0,0.1-0.1,0.1-0.1,0.2c-0.1,0.1-0.2,0.3-0.2,0.4c0,0.1-0.1,0.1-0.1,0.2c-0.1,0.2-0.3,0.5-0.4,0.7
						c-0.1,0.1-0.1,0.2-0.2,0.3c-0.1,0.1-0.1,0.2-0.2,0.3c-0.1,0.1-0.1,0.2-0.2,0.3c-0.1,0.1-0.1,0.2-0.2,0.3
						c-0.1,0.1-0.1,0.2-0.2,0.4c0,0.1-0.1,0.2-0.1,0.2c-0.1,0.2-0.2,0.4-0.3,0.5c-0.1,0.2-0.2,0.4-0.3,0.5c0,0,0,0.1-0.1,0.1
						c0,0,0,0.1-0.1,0.1c0,0,0,0.1-0.1,0.1c0,0,0,0.1-0.1,0.1c0,0,0,0.1-0.1,0.1c-0.1,0.1-0.1,0.2-0.1,0.2c0,0.1-0.1,0.1-0.1,0.2
						c-0.1,0.2-0.1,0.3-0.2,0.3c0,0.1-0.1,0.1-0.1,0.2c-0.1,0.2-0.1,0.2-0.1,0.2c-0.1,0.1-0.1,0.2-0.2,0.3c-0.1,0.1-0.1,0.3-0.2,0.4
						c0,0,0,0.1-0.1,0.1c0,0.1,0,0.1-0.1,0.1c0,0.1-0.1,0.2-0.1,0.2c0,0,0,0.1-0.1,0.1c-0.1,0.3-0.2,0.4-0.2,0.4
						c0,0.1-0.1,0.2-0.1,0.3c0,0.1-0.1,0.2-0.1,0.3c0,0.1,0,0.1-0.1,0.2c-0.1,0.2-0.1,0.2-0.1,0.3c-0.1,0.1-0.1,0.2-0.1,0.2
						c0,0.1-0.1,0.2-0.1,0.2c-0.1,0.2-0.2,0.4-0.2,0.6c-0.1,0.2-0.1,0.4-0.2,0.6c0,0.1,0,0.1-0.1,0.2c0,0.1-0.1,0.2-0.1,0.3
						c0,0.1-0.1,0.2-0.1,0.2c0,0.1-0.1,0.2-0.1,0.3c0,0.1-0.1,0.2-0.1,0.2c0,0.1-0.1,0.2-0.1,0.3c0,0.1-0.1,0.2-0.1,0.2
						c0,0.1-0.1,0.2-0.1,0.3c0,0.1,0,0.2-0.1,0.2c0,0.1-0.1,0.2-0.1,0.3c0,0.1,0,0.2-0.1,0.2c0,0.1-0.1,0.2-0.1,0.3
						c0,0.1,0,0.2-0.1,0.2c0,0.1,0,0.2-0.1,0.3c0,0.1,0,0.1-0.1,0.2c0,0.1,0,0.2-0.1,0.3c0,0.1,0,0.1,0,0.2c0,0.1-0.1,0.3-0.1,0.4
						c0,0.1,0,0.1,0,0.2c0,0.1-0.1,0.3-0.1,0.4c0,0.1,0,0.1,0,0.2c0,0.1,0,0.2-0.1,0.3c0,0.1,0,0.1,0,0.2c0,0.1,0,0.2,0,0.3
						c0,0.1,0,0.1,0,0.2c0,0.1,0,0.2,0,0.3c0,0.1,0,0.1,0,0.2c0,0.1,0,0.2,0,0.3c0,0.1,0,0.1,0,0.2c0,0.1,0,0.2,0,0.3
						c0,0.1,0,0.1,0,0.2c0,0.1,0,0.2,0,0.3c0,0.1,0,0.1,0,0.2c0,0.1,0,0.2,0,0.3c0,0.1,0,0.1,0,0.2c0,0.1,0,0.2,0,0.3
						c0,0.1,0,0.1,0,0.2c0,0.1,0,0.3,0,0.4c0,0,0,0.1,0,0.1c0,0.1,0,0.2,0,0.3c0,0.1,0,0.1,0,0.2c0,0.1,0,0.2,0,0.3
						c0,0.1,0,0.1,0,0.2c0,0.1,0,0.2,0,0.2c0,0.1,0,0.1,0,0.2c0,0.1,0,0.2,0,0.2c0,0.1,0,0.1,0,0.2c0,0.1,0,0.2,0,0.2
						c0,0.1,0,0.1,0,0.2c0,0.1,0,0.2,0,0.2c0,0.1,0,0.1,0,0.2c0,0.1,0,0.2,0,0.2c0,0.1,0,0.1,0,0.2c0,0.1,0,0.2,0,0.2
						c0,0.1,0,0.1,0,0.2c0,0.1,0,0.2,0.1,0.3c0,0,0,0.1,0,0.1c0,0.1,0,0.3,0.1,0.4c0,0,0,0.1,0,0.1c0,0.1,0,0.2,0.1,0.2
						c0,0.1,0,0.1,0,0.2c0,0.1,0,0.1,0.1,0.2c0,0.1,0,0.1,0,0.2c0,0.1,0,0.1,0.1,0.2c0,0.1,0,0.1,0,0.2c0,0.1,0,0.1,0.1,0.2
						c0,0.1,0,0.1,0.1,0.2c0,0.1,0,0.1,0.1,0.2c0,0.1,0,0.1,0.1,0.2c0,0.1,0,0.1,0.1,0.2c0,0.1,0,0.1,0.1,0.1c0,0.1,0.1,0.1,0.1,0.2
						c0,0,0,0.1,0.1,0.1c0,0.1,0.1,0.2,0.1,0.2c0,0,0,0.1,0,0.1c0.1,0.1,0.1,0.2,0.2,0.3c0.1,0.1,0.1,0.2,0.2,0.3c0,0,0,0.1,0.1,0.1
						c0,0.1,0.1,0.1,0.1,0.2c0,0,0,0.1,0.1,0.1c0,0.1,0.1,0.1,0.1,0.2c0,0,0.1,0.1,0.1,0.1c0,0.1,0.1,0.1,0.1,0.2
						c0,0,0.1,0.1,0.1,0.1c0,0.1,0.1,0.1,0.1,0.2l-1.8-1.8c0-0.1-0.1-0.1-0.1-0.2c0,0-0.1-0.1-0.1-0.1c0-0.1-0.1-0.1-0.1-0.2
						c0,0-0.1-0.1-0.1-0.1c0-0.1-0.1-0.1-0.1-0.2c0,0,0-0.1-0.1-0.1c0-0.1-0.1-0.1-0.1-0.2c0,0,0-0.1-0.1-0.1c0-0.1-0.1-0.2-0.2-0.3
						c-0.1-0.1-0.1-0.2-0.2-0.3c0,0,0-0.1,0-0.1c0-0.1-0.1-0.2-0.1-0.2c0,0,0-0.1-0.1-0.1c0-0.1-0.1-0.1-0.1-0.2c0,0,0-0.1-0.1-0.1
						c0-0.1-0.1-0.1-0.1-0.2c0-0.1,0-0.1-0.1-0.2c0-0.1,0-0.1-0.1-0.2c0-0.1,0-0.1-0.1-0.2c0-0.1,0-0.1-0.1-0.2c0-0.1,0-0.1,0-0.2
						c0-0.1,0-0.1-0.1-0.2c0-0.1,0-0.1,0-0.2c0-0.1,0-0.1-0.1-0.2c0-0.1,0-0.1,0-0.2c0-0.1,0-0.2-0.1-0.2c0,0,0-0.1,0-0.1
						c0-0.1-0.1-0.3-0.1-0.4c0,0,0-0.1,0-0.1c0-0.1,0-0.2-0.1-0.3c0-0.1,0-0.1,0-0.2c0-0.1,0-0.2,0-0.2c0-0.1,0-0.1,0-0.2
						c0-0.1,0-0.2,0-0.2c0-0.1,0-0.1,0-0.2c0-0.1,0-0.2,0-0.2c0-0.1,0-0.1,0-0.2c0-0.1,0-0.2,0-0.2c0-0.1,0-0.1,0-0.2
						c0-0.1,0-0.2,0-0.2c0-0.1,0-0.1,0-0.2c0-0.1,0-0.2,0-0.2c0-0.1,0-0.1,0-0.2c0-0.1,0-0.2,0-0.3c0-0.1,0-0.1,0-0.2
						c0-0.1,0-0.2,0-0.3c0,0,0-0.1,0-0.1c0-0.1,0-0.3,0-0.4c0-0.1,0-0.1,0-0.2c0-0.1,0-0.2,0-0.3c0-0.1,0-0.1,0-0.2
						c0-0.1,0-0.2,0-0.3c0-0.1,0-0.1,0-0.2c0-0.1,0-0.2,0-0.3c0-0.1,0-0.1,0-0.2c0-0.1,0-0.2,0-0.3c0-0.1,0-0.1,0-0.2
						c0-0.1,0-0.2,0-0.3c0-0.1,0-0.1,0-0.2c0-0.1,0-0.2,0-0.3c0-0.1,0-0.1,0-0.2c0-0.1,0-0.2,0-0.3c0-0.1,0-0.1,0-0.2
						c0-0.1,0-0.2,0.1-0.3c0-0.1,0-0.1,0-0.2c0-0.1,0.1-0.2,0.1-0.4c0-0.1,0-0.1,0-0.2c0-0.1,0.1-0.3,0.1-0.4c0-0.1,0-0.1,0-0.2
						c0-0.1,0-0.2,0.1-0.3c0-0.1,0-0.1,0.1-0.2c0-0.1,0-0.2,0.1-0.3c0-0.1,0-0.2,0.1-0.2c0-0.1,0.1-0.2,0.1-0.3c0-0.1,0-0.2,0.1-0.2
						c0-0.1,0.1-0.2,0.1-0.3c0-0.1,0-0.2,0.1-0.2c0-0.1,0.1-0.2,0.1-0.3c0-0.1,0-0.2,0.1-0.2c0-0.1,0.1-0.2,0.1-0.3
						c0-0.1,0.1-0.2,0.1-0.2c0-0.1,0.1-0.2,0.1-0.3c0-0.1,0.1-0.2,0.1-0.2c0-0.1,0.1-0.2,0.1-0.3c0-0.1,0-0.1,0.1-0.2
						c0.1-0.2,0.1-0.3,0.2-0.6c0.1-0.2,0.1-0.3,0.2-0.6c0-0.1,0.1-0.2,0.1-0.2c0,0,0-0.1,0.1-0.2c0-0.1,0-0.1,0.1-0.3
						c0-0.1,0-0.1,0.1-0.2c0-0.1,0.1-0.1,0.1-0.3c0-0.1,0.1-0.2,0.1-0.3c0-0.1,0.1-0.1,0.2-0.4c0,0,0-0.1,0.1-0.1
						c0-0.1,0.1-0.1,0.1-0.2c0,0,0-0.1,0.1-0.1c0,0,0-0.1,0.1-0.1c0.1-0.1,0.1-0.3,0.2-0.4c0.1-0.1,0.1-0.2,0.2-0.3
						c0,0,0-0.1,0.1-0.2c0-0.1,0.1-0.1,0.1-0.2c0,0,0-0.1,0.2-0.3c0-0.1,0.1-0.1,0.1-0.2c0-0.1,0.1-0.1,0.1-0.2c0,0,0-0.1,0.1-0.1
						c0,0,0-0.1,0.1-0.1c0,0,0-0.1,0.1-0.1c0,0,0-0.1,0.1-0.1c0,0,0-0.1,0.1-0.1c0.1-0.2,0.2-0.3,0.3-0.5c0.1-0.2,0.2-0.4,0.3-0.5
						c0-0.1,0.1-0.2,0.1-0.2c0.1-0.1,0.1-0.2,0.2-0.4c0.1-0.1,0.1-0.2,0.2-0.3c0.1-0.1,0.1-0.2,0.2-0.3c0.1-0.1,0.1-0.2,0.2-0.3
						c0.1-0.1,0.1-0.2,0.2-0.3c0.1-0.2,0.3-0.5,0.4-0.7c0-0.1,0.1-0.1,0.1-0.2c0.1-0.1,0.2-0.3,0.2-0.4c0-0.1,0.1-0.1,0.1-0.2
						c0.1-0.1,0.2-0.3,0.2-0.4c0-0.1,0.1-0.1,0.1-0.2c0.1-0.1,0.2-0.3,0.3-0.4c0,0,0.1-0.1,0.1-0.1c0.3-0.5,0.6-1,1-1.5
						c0.1-0.2,0.2-0.3,0.3-0.5c0,0,0.1-0.1,0.1-0.1c0.1-0.2,0.2-0.3,0.4-0.5c0.5-0.7,0.9-1.3,1.4-2c0,0,0.1-0.1,0.1-0.1
						c0.1-0.1,0.2-0.3,0.3-0.4c0,0,0.1-0.1,0.1-0.1C185.1,204.3,185.2,204.2,185.2,204.1z"/>
				</defs>
				<clipPath id="XMLID_35_">
					<use xlink:href="#XMLID_574_"  style="overflow:visible;"/>
				</clipPath>
				<g id="XMLID_554_" class="st15">
					<path id="XMLID_573_" class="st4" d="M185.2,204.1l1.8,1.8c0,0,0,0,0,0L185.2,204.1C185.2,204.1,185.2,204.1,185.2,204.1"/>
					<path id="XMLID_572_" class="st4" d="M185.2,204.1l1.8,1.8c-0.1,0.1-0.1,0.2-0.2,0.3c0,0-0.1,0.1-0.1,0.1
						c-0.1,0.1-0.2,0.3-0.3,0.4c0,0-0.1,0.1-0.1,0.1c-0.5,0.7-1,1.3-1.4,2c-0.2,0.2-0.3,0.4-0.4,0.5c0,0,0,0,0,0l-1.8-1.8
						c0,0,0,0,0,0c0.1-0.2,0.2-0.3,0.4-0.5c0.5-0.7,0.9-1.3,1.4-2c0,0,0.1-0.1,0.1-0.1c0.1-0.1,0.2-0.3,0.3-0.4c0,0,0.1-0.1,0.1-0.1
						C185.1,204.3,185.2,204.2,185.2,204.1"/>
					<path id="XMLID_571_" class="st4" d="M182.7,207.7l1.8,1.8c0,0,0,0.1-0.1,0.1c-0.1,0.2-0.2,0.3-0.3,0.5c-0.4,0.5-0.7,1-1,1.5
						c0,0-0.1,0.1-0.1,0.1c-0.1,0.1-0.2,0.3-0.3,0.4c0,0.1-0.1,0.1-0.1,0.2c-0.1,0.1-0.2,0.3-0.2,0.4c0,0.1-0.1,0.1-0.1,0.2
						c-0.1,0.1-0.2,0.3-0.2,0.4c0,0.1-0.1,0.1-0.1,0.2c-0.1,0.2-0.3,0.5-0.4,0.7c-0.1,0.1-0.1,0.2-0.2,0.3c-0.1,0.1-0.1,0.2-0.2,0.3
						c-0.1,0.1-0.1,0.2-0.2,0.3c-0.1,0.1-0.1,0.2-0.2,0.3c-0.1,0.1-0.1,0.2-0.2,0.4c0,0.1-0.1,0.2-0.1,0.2c-0.1,0.2-0.2,0.4-0.3,0.5
						c-0.1,0.2-0.2,0.4-0.3,0.5c0,0,0,0.1-0.1,0.1c0,0,0,0.1-0.1,0.1c0,0,0,0.1-0.1,0.1c0,0,0,0.1-0.1,0.1c0,0,0,0.1-0.1,0.1
						c-0.1,0.1-0.1,0.2-0.1,0.2c0,0.1-0.1,0.1-0.1,0.2c-0.1,0.2-0.1,0.3-0.2,0.3c0,0.1-0.1,0.1-0.1,0.2c-0.1,0.2-0.1,0.2-0.1,0.2
						c-0.1,0.1-0.1,0.2-0.2,0.3c-0.1,0.1-0.1,0.3-0.2,0.4c0,0,0,0.1-0.1,0.1c0,0.1,0,0.1-0.1,0.1c0,0.1-0.1,0.2-0.1,0.2
						c0,0,0,0.1-0.1,0.1c-0.1,0.3-0.2,0.4-0.2,0.4c0,0.1-0.1,0.2-0.1,0.3c0,0.1-0.1,0.2-0.1,0.3c0,0.1,0,0.1-0.1,0.2
						c-0.1,0.2-0.1,0.2-0.1,0.3c-0.1,0.1-0.1,0.2-0.1,0.2c0,0.1-0.1,0.2-0.1,0.2c-0.1,0.2-0.2,0.4-0.2,0.6c-0.1,0.2-0.1,0.4-0.2,0.6
						c0,0.1,0,0.1-0.1,0.2c0,0.1-0.1,0.2-0.1,0.3c0,0.1-0.1,0.2-0.1,0.2c0,0.1-0.1,0.2-0.1,0.3c0,0.1-0.1,0.2-0.1,0.2
						c0,0.1-0.1,0.2-0.1,0.2l-1.8-1.8c0-0.1,0.1-0.2,0.1-0.2c0-0.1,0.1-0.2,0.1-0.2c0-0.1,0.1-0.2,0.1-0.3c0-0.1,0.1-0.2,0.1-0.2
						c0-0.1,0.1-0.2,0.1-0.3c0-0.1,0-0.1,0.1-0.2c0.1-0.2,0.1-0.3,0.2-0.6c0.1-0.2,0.1-0.3,0.2-0.6c0-0.1,0.1-0.2,0.1-0.2
						c0,0,0-0.1,0.1-0.2c0-0.1,0-0.1,0.1-0.3c0-0.1,0-0.1,0.1-0.2c0-0.1,0.1-0.1,0.1-0.3c0-0.1,0.1-0.2,0.1-0.3
						c0-0.1,0.1-0.1,0.2-0.4c0,0,0-0.1,0.1-0.1c0-0.1,0.1-0.1,0.1-0.2c0,0,0-0.1,0.1-0.1c0,0,0-0.1,0.1-0.1c0.1-0.1,0.1-0.3,0.2-0.4
						c0.1-0.1,0.1-0.2,0.2-0.3c0,0,0-0.1,0.1-0.2c0-0.1,0.1-0.1,0.1-0.2c0,0,0-0.1,0.2-0.3c0-0.1,0.1-0.1,0.1-0.2
						c0-0.1,0.1-0.1,0.1-0.2c0,0,0-0.1,0.1-0.1c0,0,0-0.1,0.1-0.1c0,0,0-0.1,0.1-0.1c0,0,0-0.1,0.1-0.1c0,0,0-0.1,0.1-0.1
						c0.1-0.2,0.2-0.3,0.3-0.5c0.1-0.2,0.2-0.4,0.3-0.5c0-0.1,0.1-0.2,0.1-0.2c0.1-0.1,0.1-0.2,0.2-0.4c0.1-0.1,0.1-0.2,0.2-0.3
						c0.1-0.1,0.1-0.2,0.2-0.3c0.1-0.1,0.1-0.2,0.2-0.3c0.1-0.1,0.1-0.2,0.2-0.3c0.1-0.2,0.3-0.5,0.4-0.7c0-0.1,0.1-0.1,0.1-0.2
						c0.1-0.1,0.2-0.3,0.2-0.4c0-0.1,0.1-0.1,0.1-0.2c0.1-0.1,0.2-0.3,0.2-0.4c0-0.1,0.1-0.1,0.1-0.2c0.1-0.1,0.2-0.3,0.3-0.4
						c0,0,0.1-0.1,0.1-0.1c0.3-0.5,0.6-1,1-1.5C182.4,208,182.5,207.9,182.7,207.7C182.6,207.7,182.7,207.7,182.7,207.7"/>
					<path id="XMLID_570_" class="st4" d="M175,222.8l1.8,1.8c0,0,0,0,0,0c0,0.1-0.1,0.2-0.1,0.2c0,0.1-0.1,0.2-0.1,0.3
						c0,0.1,0,0.2-0.1,0.2c0,0.1-0.1,0.2-0.1,0.3c0,0.1,0,0.2-0.1,0.2c0,0.1-0.1,0.2-0.1,0.3c0,0.1,0,0.2-0.1,0.2
						c0,0.1,0,0.2-0.1,0.3c0,0.1,0,0.1-0.1,0.2c0,0.1,0,0.2-0.1,0.3c0,0.1,0,0.1,0,0.2c0,0.1,0,0.2-0.1,0.3l-1.8-1.8
						c0-0.1,0-0.2,0.1-0.3c0-0.1,0-0.1,0-0.2c0-0.1,0-0.2,0.1-0.3c0-0.1,0-0.1,0.1-0.2c0-0.1,0-0.2,0.1-0.3c0-0.1,0-0.2,0.1-0.2
						c0-0.1,0.1-0.2,0.1-0.3c0-0.1,0-0.2,0.1-0.2c0-0.1,0.1-0.2,0.1-0.3c0-0.1,0-0.2,0.1-0.2c0-0.1,0.1-0.2,0.1-0.3
						C174.9,223,174.9,222.9,175,222.8C175,222.8,175,222.8,175,222.8"/>
					<path id="XMLID_569_" class="st4" d="M174.1,225.9l1.8,1.8c0,0.1,0,0.1,0,0.2c0,0.1,0,0.1,0,0.2c0,0.1-0.1,0.3-0.1,0.4
						c0,0.1,0,0.1,0,0.2c0,0.1,0,0.2-0.1,0.3c0,0.1,0,0.1,0,0.2c0,0.1,0,0.2,0,0.3c0,0.1,0,0.1,0,0.2c0,0.1,0,0.2,0,0.3
						c0,0,0,0.1,0,0.1l-1.8-1.8c0,0,0-0.1,0-0.1c0-0.1,0-0.2,0-0.3c0-0.1,0-0.1,0-0.2c0-0.1,0-0.2,0-0.3c0-0.1,0-0.1,0-0.2
						c0-0.1,0-0.2,0.1-0.3c0-0.1,0-0.1,0-0.2c0-0.1,0.1-0.2,0.1-0.4c0-0.1,0-0.1,0-0.2C174.1,226,174.1,225.9,174.1,225.9"/>
					<path id="XMLID_568_" class="st4" d="M173.7,228.2l1.8,1.8c0,0,0,0.1,0,0.1c0,0.1,0,0.2,0,0.3c0,0.1,0,0.1,0,0.2
						c0,0.1,0,0.2,0,0.3c0,0.1,0,0.1,0,0.2c0,0.1,0,0.2,0,0.3c0,0.1,0,0.1,0,0.2c0,0.1,0,0.2,0,0.3c0,0.1,0,0.1,0,0.2l-1.8-1.8
						c0-0.1,0-0.1,0-0.2c0-0.1,0-0.2,0-0.3c0-0.1,0-0.1,0-0.2c0-0.1,0-0.2,0-0.3c0-0.1,0-0.1,0-0.2c0-0.1,0-0.2,0-0.3
						c0-0.1,0-0.1,0-0.2c0-0.1,0-0.2,0-0.3C173.7,228.2,173.7,228.2,173.7,228.2"/>
					<path id="XMLID_567_" class="st4" d="M173.5,230.1l1.8,1.8c0,0,0,0,0,0c0,0.1,0,0.2,0,0.3c0,0.1,0,0.1,0,0.2c0,0.1,0,0.3,0,0.4
						c0,0,0,0.1,0,0.1c0,0.1,0,0.2,0,0.3c0,0,0,0,0,0.1l-1.8-1.8c0,0,0,0,0-0.1c0-0.1,0-0.2,0-0.3c0,0,0-0.1,0-0.1
						c0-0.1,0-0.3,0-0.4c0-0.1,0-0.1,0-0.2C173.5,230.3,173.5,230.2,173.5,230.1C173.5,230.1,173.5,230.1,173.5,230.1"/>
					<path id="XMLID_566_" class="st4" d="M173.5,231.5l1.8,1.8c0,0,0,0.1,0,0.1c0,0,0,0,0,0l-1.8-1.8c0,0,0,0,0,0
						C173.5,231.6,173.5,231.5,173.5,231.5"/>
					<path id="XMLID_565_" class="st4" d="M173.5,231.6l1.8,1.8c0,0,0,0,0,0L173.5,231.6C173.5,231.6,173.5,231.6,173.5,231.6"/>
					<path id="XMLID_564_" class="st4" d="M173.5,231.6l1.8,1.8c0,0.1,0,0.1,0,0.2c0,0.1,0,0.1,0,0.2c0,0.1,0,0.2,0,0.2
						c0,0.1,0,0.1,0,0.2c0,0.1,0,0.2,0,0.2c0,0.1,0,0.1,0,0.2c0,0,0,0.1,0,0.1l-1.8-1.8c0,0,0-0.1,0-0.1c0-0.1,0-0.1,0-0.2
						c0-0.1,0-0.2,0-0.2c0-0.1,0-0.1,0-0.2c0-0.1,0-0.2,0-0.2c0-0.1,0-0.1,0-0.2C173.5,231.8,173.5,231.7,173.5,231.6"/>
					<path id="XMLID_563_" class="st4" d="M173.5,233l1.8,1.8c0,0,0,0.1,0,0.1c0,0.1,0,0.1,0,0.2c0,0.1,0,0.2,0,0.2
						c0,0.1,0,0.1,0,0.2c0,0.1,0,0.2,0,0.2c0,0.1,0,0.1,0,0.2c0,0,0,0.1,0,0.1l-1.8-1.8c0,0,0-0.1,0-0.1c0-0.1,0-0.1,0-0.2
						c0-0.1,0-0.2,0-0.2c0-0.1,0-0.1,0-0.2c0-0.1,0-0.2,0-0.2C173.5,233.3,173.5,233.2,173.5,233C173.5,233.1,173.5,233.1,173.5,233
						"/>
					<path id="XMLID_562_" class="st4" d="M173.7,234.3l1.8,1.8c0,0,0,0.1,0,0.1c0,0,0,0,0,0l-1.8-1.8c0,0,0,0,0,0
						C173.7,234.3,173.7,234.3,173.7,234.3"/>
					<path id="XMLID_561_" class="st4" d="M173.7,234.4l1.8,1.8c0,0,0,0.1,0,0.1L173.7,234.4C173.7,234.4,173.7,234.4,173.7,234.4"
						/>
					<path id="XMLID_560_" class="st4" d="M173.7,234.5l1.8,1.8c0,0,0,0,0,0.1c0,0.1,0,0.2,0.1,0.3c0,0,0,0.1,0,0.1
						c0,0.1,0,0.3,0.1,0.4c0,0,0,0.1,0,0.1c0,0.1,0,0.1,0,0.2l-1.8-1.8c0-0.1,0-0.1,0-0.2c0,0,0-0.1,0-0.1c0-0.1-0.1-0.3-0.1-0.4
						c0,0,0-0.1,0-0.1C173.7,234.7,173.7,234.6,173.7,234.5C173.7,234.5,173.7,234.5,173.7,234.5"/>
					<path id="XMLID_559_" class="st4" d="M173.9,235.6l1.8,1.8c0,0,0,0.1,0,0.1c0,0.1,0,0.1,0,0.2c0,0.1,0,0.1,0.1,0.2
						c0,0.1,0,0.1,0,0.2c0,0.1,0,0.1,0.1,0.2c0,0.1,0,0.1,0,0.2c0,0,0,0.1,0,0.1l-1.8-1.8c0,0,0-0.1,0-0.1c0-0.1,0-0.1,0-0.2
						c0-0.1,0-0.1-0.1-0.2c0-0.1,0-0.1,0-0.2c0-0.1,0-0.1-0.1-0.2C174,235.8,173.9,235.7,173.9,235.6
						C173.9,235.7,173.9,235.6,173.9,235.6"/>
					<path id="XMLID_558_" class="st4" d="M174.2,236.7l1.8,1.8c0,0,0,0.1,0,0.1c0,0.1,0,0.1,0.1,0.2c0,0.1,0,0.1,0.1,0.2
						c0,0.1,0,0.1,0.1,0.2c0,0.1,0,0.1,0.1,0.2c0,0.1,0,0.1,0.1,0.1c0,0,0,0.1,0,0.1l-1.8-1.8c0,0,0-0.1,0-0.1c0,0,0-0.1-0.1-0.1
						c0-0.1-0.1-0.1-0.1-0.2c0-0.1,0-0.1-0.1-0.2c0-0.1,0-0.1-0.1-0.2C174.3,236.9,174.3,236.9,174.2,236.7
						C174.2,236.8,174.2,236.7,174.2,236.7"/>
					<path id="XMLID_557_" class="st4" d="M174.6,237.7l1.8,1.8c0,0,0,0.1,0.1,0.1c0,0,0,0.1,0.1,0.1c0,0.1,0.1,0.2,0.1,0.2
						c0,0,0,0.1,0,0.1c0.1,0.1,0.1,0.2,0.2,0.3c0,0.1,0.1,0.1,0.1,0.2l-1.8-1.8c0,0,0-0.1-0.1-0.2c-0.1-0.1-0.1-0.2-0.2-0.3
						c0,0,0-0.1,0-0.1c0-0.1-0.1-0.2-0.1-0.2c0,0,0-0.1-0.1-0.1C174.6,237.8,174.6,237.8,174.6,237.7"/>
					<path id="XMLID_556_" class="st4" d="M175.1,238.8l1.8,1.8c0,0.1,0.1,0.1,0.1,0.2c0,0,0,0.1,0.1,0.1c0,0.1,0.1,0.1,0.1,0.2
						c0,0,0,0.1,0.1,0.1c0,0.1,0.1,0.1,0.1,0.2c0,0,0.1,0.1,0.1,0.1c0,0,0,0.1,0,0.1l-1.8-1.8c0,0,0-0.1,0-0.1c0,0-0.1-0.1-0.1-0.1
						c0-0.1-0.1-0.1-0.1-0.2c0,0,0-0.1-0.1-0.1c0-0.1-0.1-0.1-0.1-0.2c0,0,0-0.1-0.1-0.1C175.1,238.9,175.1,238.9,175.1,238.8"/>
					<path id="XMLID_555_" class="st4" d="M175.6,239.8l1.8,1.8c0,0,0,0.1,0.1,0.1c0,0,0.1,0.1,0.1,0.1c0,0.1,0.1,0.1,0.1,0.2
						l-1.8-1.8c0-0.1-0.1-0.1-0.1-0.2c0,0-0.1-0.1-0.1-0.1C175.7,239.9,175.7,239.9,175.6,239.8"/>
				</g>
			</g>
			<g id="XMLID_549_" class="st3">
				<defs>
					<path id="XMLID_552_" class="st3" d="M175.9,240.2l1.8,1.8c0,0,0.1,0.1,0.1,0.1c0,0.1,0.1,0.1,0.1,0.2l-1.8-1.8
						c0-0.1-0.1-0.1-0.1-0.2C176,240.3,175.9,240.3,175.9,240.2z"/>
				</defs>
				<clipPath id="XMLID_65_">
					<use xlink:href="#XMLID_552_"  style="overflow:visible;"/>
				</clipPath>
				<g id="XMLID_550_" class="st16">
					<path id="XMLID_551_" class="st4" d="M175.9,240.2l1.8,1.8c0,0,0.1,0.1,0.1,0.1c0,0.1,0.1,0.1,0.1,0.2l-1.8-1.8
						c0-0.1-0.1-0.1-0.1-0.2C176,240.3,175.9,240.3,175.9,240.2"/>
				</g>
			</g>
			<g id="XMLID_544_" class="st3">
				<defs>
					<path id="XMLID_548_" class="st3" d="M176.1,240.5l1.8,1.8c0,0,0.1,0.1,0.1,0.1c0,0.1,0.1,0.1,0.1,0.2l-1.8-1.8
						c0-0.1-0.1-0.1-0.1-0.2C176.2,240.6,176.1,240.6,176.1,240.5z"/>
				</defs>
				<clipPath id="XMLID_68_">
					<use xlink:href="#XMLID_548_"  style="overflow:visible;"/>
				</clipPath>
				<g id="XMLID_545_" class="st17">
					<path id="XMLID_547_" class="st4" d="M176.1,240.5l1.8,1.8c0,0,0.1,0.1,0.1,0.1c0,0,0,0.1,0.1,0.1l-1.8-1.8c0,0,0-0.1-0.1-0.1
						C176.2,240.6,176.1,240.6,176.1,240.5"/>
					<path id="XMLID_546_" class="st4" d="M176.3,240.8l1.8,1.8c0,0,0,0.1,0.1,0.1L176.3,240.8C176.3,240.8,176.3,240.8,176.3,240.8
						"/>
				</g>
			</g>
			<g id="XMLID_540_" class="st3">
				<defs>
					<path id="XMLID_543_" class="st3" d="M257.3,163.2c-0.6-0.6-1.2-1.2-1.8-1.8c0.4,0,0.9,0,1.3,0c0.6,0.6,1.2,1.2,1.8,1.8
						C258.1,163.1,257.7,163.2,257.3,163.2z"/>
				</defs>
				<clipPath id="XMLID_73_">
					<use xlink:href="#XMLID_543_"  style="overflow:visible;"/>
				</clipPath>
				<g id="XMLID_541_" class="st18">
					<path id="XMLID_542_" class="st4" d="M261.9,161.7l1.8,1.8c0,0-0.1,0-0.1,0c-0.1,0-0.2,0-0.2,0c-0.1,0-0.1,0-0.2,0
						c-0.1,0-0.1,0-0.1,0c-0.1,0-0.1,0-0.2,0c0,0-0.1,0-0.1,0c0,0-0.1,0-0.1,0c-0.1,0-0.1,0-0.2,0c-0.2,0-0.3,0-0.5-0.1
						c-0.1,0-0.1,0-0.2,0c-0.1,0-0.1,0-0.2,0c-0.4,0-0.8-0.1-1.3-0.1c0,0-0.1,0-0.1,0c-0.5,0-1,0-1.6,0c0,0,0,0-0.1,0
						c-0.4,0-0.9,0-1.3,0c-0.1,0-0.2,0-0.3,0c0,0,0,0-0.1,0c-0.2,0-0.4,0-0.6,0c-0.1,0-0.2,0-0.3,0c0,0-0.1,0-0.1,0c0,0,0,0-0.1,0
						c-0.1,0-0.2,0-0.3,0c-0.1,0-0.1,0-0.2,0c-0.1,0-0.2,0-0.2,0c-0.1,0-0.1,0-0.2,0c-0.1,0-0.1,0-0.2,0c-0.1,0-0.3,0-0.4,0
						c-0.1,0-0.1,0-0.2,0c-0.1,0-0.2,0-0.3,0c-0.1,0-0.1,0-0.2,0c-0.1,0-0.2,0-0.3,0c0,0-0.1,0-0.1,0c-0.1,0-0.3,0-0.5,0.1
						c-0.2,0-0.3,0-0.5,0.1c0,0-0.1,0-0.1,0c-0.3,0-0.5,0.1-0.8,0.1c0,0-0.1,0-0.1,0c-0.3,0-0.6,0.1-0.9,0.2c0,0-0.1,0-0.1,0
						c-0.3,0.1-0.6,0.1-0.9,0.2c0,0-0.1,0-0.1,0c-0.3,0.1-0.6,0.1-0.9,0.2c0,0,0,0-0.1,0c-0.3,0.1-0.7,0.1-1,0.2
						c-0.4,0.1-0.7,0.2-1.1,0.3l-1.8-1.8c0.3-0.1,0.7-0.2,1.1-0.3c0.3-0.1,0.7-0.2,1-0.2c0,0,0,0,0.1,0c0.3-0.1,0.6-0.1,0.9-0.2
						c0,0,0.1,0,0.1,0c0.3-0.1,0.6-0.1,0.9-0.2c0,0,0.1,0,0.1,0c0.3-0.1,0.6-0.1,0.9-0.2c0,0,0.1,0,0.1,0c0.3,0,0.5-0.1,0.8-0.1
						c0,0,0.1,0,0.1,0c0.2,0,0.3,0,0.5-0.1c0.2,0,0.3,0,0.5-0.1c0,0,0.1,0,0.1,0c0.1,0,0.2,0,0.3,0c0.1,0,0.1,0,0.2,0
						c0.1,0,0.2,0,0.3,0c0.1,0,0.1,0,0.2,0c0.1,0,0.3,0,0.4,0c0.1,0,0.1,0,0.2,0c0.1,0,0.1,0,0.2,0c0.1,0,0.2,0,0.2,0
						c0.1,0,0.1,0,0.2,0c0.1,0,0.2,0,0.3,0c0,0,0,0,0.1,0c0,0,0.1,0,0.1,0c0.1,0,0.2,0,0.3,0c0.2,0,0.4,0,0.6,0c0,0,0,0,0.1,0
						c0.1,0,0.2,0,0.3,0c0.4,0,0.9,0,1.3,0c0,0,0,0,0.1,0c0.5,0,1.1,0,1.6,0c0,0,0.1,0,0.1,0c0.4,0,0.9,0,1.3,0.1c0.1,0,0.1,0,0.2,0
						c0.1,0,0.1,0,0.2,0c0.2,0,0.3,0,0.5,0.1c0.1,0,0.1,0,0.2,0c0,0,0.1,0,0.1,0c0,0,0.1,0,0.1,0c0.1,0,0.1,0,0.2,0c0,0,0.1,0,0.1,0
						c0.1,0,0.1,0,0.2,0c0.1,0,0.2,0,0.2,0C261.8,161.7,261.9,161.7,261.9,161.7"/>
				</g>
			</g>
			<g id="XMLID_536_" class="st3">
				<defs>
					<path id="XMLID_539_" class="st3" d="M258.5,163.1c-0.6-0.6-1.2-1.2-1.8-1.8c0,0,0,0,0,0c0,0,0,0,0.1,0c0,0,0,0,0,0
						C257.4,161.9,258,162.5,258.5,163.1C258.6,163.1,258.6,163.1,258.5,163.1C258.6,163.1,258.6,163.1,258.5,163.1
						C258.6,163.1,258.5,163.1,258.5,163.1z"/>
				</defs>
				<clipPath id="XMLID_74_">
					<use xlink:href="#XMLID_539_"  style="overflow:visible;"/>
				</clipPath>
				<g id="XMLID_537_" class="st19">
					<path id="XMLID_538_" class="st4" d="M261.9,161.7l1.8,1.8c0,0-0.1,0-0.1,0c-0.1,0-0.2,0-0.2,0c-0.1,0-0.1,0-0.2,0
						c-0.1,0-0.1,0-0.1,0c-0.1,0-0.1,0-0.2,0c0,0-0.1,0-0.1,0c0,0-0.1,0-0.1,0c-0.1,0-0.1,0-0.2,0c-0.2,0-0.3,0-0.5-0.1
						c-0.1,0-0.1,0-0.2,0c-0.1,0-0.1,0-0.2,0c-0.4,0-0.8-0.1-1.3-0.1c0,0-0.1,0-0.1,0c-0.5,0-1,0-1.6,0c0,0,0,0-0.1,0
						c-0.4,0-0.9,0-1.3,0c-0.1,0-0.2,0-0.3,0c0,0,0,0-0.1,0c-0.2,0-0.4,0-0.6,0c-0.1,0-0.2,0-0.3,0c0,0-0.1,0-0.1,0c0,0,0,0-0.1,0
						c-0.1,0-0.2,0-0.3,0c-0.1,0-0.1,0-0.2,0c-0.1,0-0.2,0-0.2,0c-0.1,0-0.1,0-0.2,0c-0.1,0-0.1,0-0.2,0c-0.1,0-0.3,0-0.4,0
						c-0.1,0-0.1,0-0.2,0c-0.1,0-0.2,0-0.3,0c-0.1,0-0.1,0-0.2,0c-0.1,0-0.2,0-0.3,0c0,0-0.1,0-0.1,0c-0.1,0-0.3,0-0.5,0.1
						c-0.2,0-0.3,0-0.5,0.1c0,0-0.1,0-0.1,0c-0.3,0-0.5,0.1-0.8,0.1c0,0-0.1,0-0.1,0c-0.3,0-0.6,0.1-0.9,0.2c0,0-0.1,0-0.1,0
						c-0.3,0.1-0.6,0.1-0.9,0.2c0,0-0.1,0-0.1,0c-0.3,0.1-0.6,0.1-0.9,0.2c0,0,0,0-0.1,0c-0.3,0.1-0.7,0.1-1,0.2
						c-0.4,0.1-0.7,0.2-1.1,0.3l-1.8-1.8c0.3-0.1,0.7-0.2,1.1-0.3c0.3-0.1,0.7-0.2,1-0.2c0,0,0,0,0.1,0c0.3-0.1,0.6-0.1,0.9-0.2
						c0,0,0.1,0,0.1,0c0.3-0.1,0.6-0.1,0.9-0.2c0,0,0.1,0,0.1,0c0.3-0.1,0.6-0.1,0.9-0.2c0,0,0.1,0,0.1,0c0.3,0,0.5-0.1,0.8-0.1
						c0,0,0.1,0,0.1,0c0.2,0,0.3,0,0.5-0.1c0.2,0,0.3,0,0.5-0.1c0,0,0.1,0,0.1,0c0.1,0,0.2,0,0.3,0c0.1,0,0.1,0,0.2,0
						c0.1,0,0.2,0,0.3,0c0.1,0,0.1,0,0.2,0c0.1,0,0.3,0,0.4,0c0.1,0,0.1,0,0.2,0c0.1,0,0.1,0,0.2,0c0.1,0,0.2,0,0.2,0
						c0.1,0,0.1,0,0.2,0c0.1,0,0.2,0,0.3,0c0,0,0,0,0.1,0c0,0,0.1,0,0.1,0c0.1,0,0.2,0,0.3,0c0.2,0,0.4,0,0.6,0c0,0,0,0,0.1,0
						c0.1,0,0.2,0,0.3,0c0.4,0,0.9,0,1.3,0c0,0,0,0,0.1,0c0.5,0,1.1,0,1.6,0c0,0,0.1,0,0.1,0c0.4,0,0.9,0,1.3,0.1c0.1,0,0.1,0,0.2,0
						c0.1,0,0.1,0,0.2,0c0.2,0,0.3,0,0.5,0.1c0.1,0,0.1,0,0.2,0c0,0,0.1,0,0.1,0c0,0,0.1,0,0.1,0c0.1,0,0.1,0,0.2,0c0,0,0.1,0,0.1,0
						c0.1,0,0.1,0,0.2,0c0.1,0,0.2,0,0.2,0C261.8,161.7,261.9,161.7,261.9,161.7"/>
				</g>
			</g>
			<g id="XMLID_532_" class="st3">
				<defs>
					<path id="XMLID_535_" class="st3" d="M176.3,240.8l1.8,1.8c0,0,0.1,0.1,0.1,0.1l-1.8-1.8C176.4,240.9,176.3,240.9,176.3,240.8z
						"/>
				</defs>
				<clipPath id="XMLID_76_">
					<use xlink:href="#XMLID_535_"  style="overflow:visible;"/>
				</clipPath>
				<g id="XMLID_533_" class="st20">
					<path id="XMLID_534_" class="st4" d="M176.3,240.8l1.8,1.8c0,0,0.1,0.1,0.1,0.1l-1.8-1.8C176.4,240.9,176.3,240.9,176.3,240.8"
						/>
				</g>
			</g>
			<g id="XMLID_528_" class="st3">
				<defs>
					<path id="XMLID_531_" class="st3" d="M176.4,241l1.8,1.8c0,0.1,0.1,0.1,0.1,0.2l-1.8-1.8C176.5,241.1,176.5,241,176.4,241z"/>
				</defs>
				<clipPath id="XMLID_78_">
					<use xlink:href="#XMLID_531_"  style="overflow:visible;"/>
				</clipPath>
				<g id="XMLID_529_" class="st21">
					<path id="XMLID_530_" class="st4" d="M176.4,241l1.8,1.8c0,0.1,0.1,0.1,0.1,0.2l-1.8-1.8C176.5,241.1,176.5,241,176.4,241"/>
				</g>
			</g>
			<g id="XMLID_524_" class="st3">
				<defs>
					<path id="XMLID_527_" class="st3" d="M176.6,241.1l1.8,1.8c0,0,0.1,0.1,0.1,0.1l-1.8-1.8C176.6,241.2,176.6,241.2,176.6,241.1z
						"/>
				</defs>
				<clipPath id="XMLID_82_">
					<use xlink:href="#XMLID_527_"  style="overflow:visible;"/>
				</clipPath>
				<g id="XMLID_525_" class="st22">
					<path id="XMLID_526_" class="st4" d="M176.6,241.1l1.8,1.8c0,0,0.1,0.1,0.1,0.1l-1.8-1.8C176.6,241.2,176.6,241.2,176.6,241.1"
						/>
				</g>
			</g>
			<g id="XMLID_520_" class="st3">
				<defs>
					<path id="XMLID_523_" class="st3" d="M176.6,241.2l1.8,1.8c0.1,0.1,0.1,0.1,0.2,0.2l-1.8-1.8
						C176.8,241.4,176.7,241.3,176.6,241.2z"/>
				</defs>
				<clipPath id="XMLID_83_">
					<use xlink:href="#XMLID_523_"  style="overflow:visible;"/>
				</clipPath>
				<g id="XMLID_521_" class="st23">
					<path id="XMLID_522_" class="st4" d="M176.6,241.2l1.8,1.8c0.1,0.1,0.1,0.1,0.2,0.2l-1.8-1.8
						C176.8,241.4,176.7,241.3,176.6,241.2"/>
				</g>
			</g>
			<g id="XMLID_515_" class="st3">
				<defs>
					<path id="XMLID_519_" class="st3" d="M176.9,241.5l1.8,1.8c0.1,0.1,0.2,0.2,0.2,0.3l-1.8-1.8
						C177,241.7,176.9,241.6,176.9,241.5z"/>
				</defs>
				<clipPath id="XMLID_84_">
					<use xlink:href="#XMLID_519_"  style="overflow:visible;"/>
				</clipPath>
				<g id="XMLID_516_" class="st24">
					<path id="XMLID_518_" class="st4" d="M176.9,241.5l1.8,1.8c0.1,0.1,0.1,0.1,0.2,0.2l-1.8-1.8
						C177,241.7,176.9,241.6,176.9,241.5"/>
					<path id="XMLID_517_" class="st4" d="M177.1,241.7l1.8,1.8c0,0,0,0,0,0.1L177.1,241.7C177.1,241.8,177.1,241.7,177.1,241.7"/>
				</g>
			</g>
			<g id="XMLID_511_" class="st3">
				<defs>
					<path id="XMLID_514_" class="st3" d="M176.8,241.5l1.8,1.8c0,0,0,0,0.1,0.1L176.8,241.5C176.8,241.5,176.8,241.5,176.8,241.5z"
						/>
				</defs>
				<clipPath id="XMLID_87_">
					<use xlink:href="#XMLID_514_"  style="overflow:visible;"/>
				</clipPath>
				<g id="XMLID_512_" class="st25">
					<path id="XMLID_513_" class="st4" d="M176.8,241.5l1.8,1.8c0,0,0,0,0.1,0.1L176.8,241.5C176.8,241.5,176.8,241.5,176.8,241.5"
						/>
				</g>
			</g>
			<g id="XMLID_507_" class="st3">
				<defs>
					<path id="XMLID_510_" class="st3" d="M258.6,163.1c-0.6-0.6-1.2-1.2-1.8-1.8c0.5,0,1,0,1.5,0c0.6,0.6,1.2,1.2,1.8,1.8
						c-0.6-0.6-1.2-1.2-1.8-1.8c0,0,0,0,0,0c0,0,0.1,0,0.1,0c0,0,0,0,0,0c0.1,0.1,0.1,0.1,0.2,0.2c0.1,0.1,0.2,0.2,0.2,0.2
						c0.1,0.1,0.2,0.2,0.2,0.2c0.1,0.1,0.2,0.2,0.2,0.2c0.1,0.1,0.2,0.2,0.2,0.2c0.1,0.1,0.2,0.2,0.2,0.2c0.1,0.1,0.2,0.2,0.2,0.2
						c0.1,0.1,0.1,0.1,0.2,0.2c0,0,0,0,0,0c0,0-0.1,0-0.1,0C259.7,163.2,259.2,163.1,258.6,163.1z"/>
				</defs>
				<clipPath id="XMLID_88_">
					<use xlink:href="#XMLID_510_"  style="overflow:visible;"/>
				</clipPath>
				<g id="XMLID_508_" class="st26">
					<path id="XMLID_509_" class="st4" d="M261.9,161.7l1.8,1.8c0,0-0.1,0-0.1,0c-0.1,0-0.2,0-0.2,0c-0.1,0-0.1,0-0.2,0
						c-0.1,0-0.1,0-0.1,0c-0.1,0-0.1,0-0.2,0c0,0-0.1,0-0.1,0c0,0-0.1,0-0.1,0c-0.1,0-0.1,0-0.2,0c-0.2,0-0.3,0-0.5-0.1
						c-0.1,0-0.1,0-0.2,0c-0.1,0-0.1,0-0.2,0c-0.4,0-0.8-0.1-1.3-0.1c0,0-0.1,0-0.1,0c-0.5,0-1,0-1.6,0c0,0,0,0-0.1,0
						c-0.4,0-0.9,0-1.3,0c-0.1,0-0.2,0-0.3,0c0,0,0,0-0.1,0c-0.2,0-0.4,0-0.6,0c-0.1,0-0.2,0-0.3,0c0,0-0.1,0-0.1,0c0,0,0,0-0.1,0
						c-0.1,0-0.2,0-0.3,0c-0.1,0-0.1,0-0.2,0c-0.1,0-0.2,0-0.2,0c-0.1,0-0.1,0-0.2,0c-0.1,0-0.1,0-0.2,0c-0.1,0-0.3,0-0.4,0
						c-0.1,0-0.1,0-0.2,0c-0.1,0-0.2,0-0.3,0c-0.1,0-0.1,0-0.2,0c-0.1,0-0.2,0-0.3,0c0,0-0.1,0-0.1,0c-0.1,0-0.3,0-0.5,0.1
						c-0.2,0-0.3,0-0.5,0.1c0,0-0.1,0-0.1,0c-0.3,0-0.5,0.1-0.8,0.1c0,0-0.1,0-0.1,0c-0.3,0-0.6,0.1-0.9,0.2c0,0-0.1,0-0.1,0
						c-0.3,0.1-0.6,0.1-0.9,0.2c0,0-0.1,0-0.1,0c-0.3,0.1-0.6,0.1-0.9,0.2c0,0,0,0-0.1,0c-0.3,0.1-0.7,0.1-1,0.2
						c-0.4,0.1-0.7,0.2-1.1,0.3l-1.8-1.8c0.3-0.1,0.7-0.2,1.1-0.3c0.3-0.1,0.7-0.2,1-0.2c0,0,0,0,0.1,0c0.3-0.1,0.6-0.1,0.9-0.2
						c0,0,0.1,0,0.1,0c0.3-0.1,0.6-0.1,0.9-0.2c0,0,0.1,0,0.1,0c0.3-0.1,0.6-0.1,0.9-0.2c0,0,0.1,0,0.1,0c0.3,0,0.5-0.1,0.8-0.1
						c0,0,0.1,0,0.1,0c0.2,0,0.3,0,0.5-0.1c0.2,0,0.3,0,0.5-0.1c0,0,0.1,0,0.1,0c0.1,0,0.2,0,0.3,0c0.1,0,0.1,0,0.2,0
						c0.1,0,0.2,0,0.3,0c0.1,0,0.1,0,0.2,0c0.1,0,0.3,0,0.4,0c0.1,0,0.1,0,0.2,0c0.1,0,0.1,0,0.2,0c0.1,0,0.2,0,0.2,0
						c0.1,0,0.1,0,0.2,0c0.1,0,0.2,0,0.3,0c0,0,0,0,0.1,0c0,0,0.1,0,0.1,0c0.1,0,0.2,0,0.3,0c0.2,0,0.4,0,0.6,0c0,0,0,0,0.1,0
						c0.1,0,0.2,0,0.3,0c0.4,0,0.9,0,1.3,0c0,0,0,0,0.1,0c0.5,0,1.1,0,1.6,0c0,0,0.1,0,0.1,0c0.4,0,0.9,0,1.3,0.1c0.1,0,0.1,0,0.2,0
						c0.1,0,0.1,0,0.2,0c0.2,0,0.3,0,0.5,0.1c0.1,0,0.1,0,0.2,0c0,0,0.1,0,0.1,0c0,0,0.1,0,0.1,0c0.1,0,0.1,0,0.2,0c0,0,0.1,0,0.1,0
						c0.1,0,0.1,0,0.2,0c0.1,0,0.2,0,0.2,0C261.8,161.7,261.9,161.7,261.9,161.7"/>
				</g>
			</g>
			<g id="XMLID_503_" class="st3">
				<defs>
					<path id="XMLID_506_" class="st3" d="M177.2,241.9l1.8,1.8c0.1,0.1,0.1,0.1,0.2,0.2l-1.8-1.8
						C177.3,242,177.2,241.9,177.2,241.9z"/>
				</defs>
				<clipPath id="XMLID_89_">
					<use xlink:href="#XMLID_506_"  style="overflow:visible;"/>
				</clipPath>
				<g id="XMLID_504_" class="st27">
					<path id="XMLID_505_" class="st4" d="M177.2,241.9l1.8,1.8c0.1,0.1,0.1,0.1,0.2,0.2l-1.8-1.8
						C177.3,242,177.2,241.9,177.2,241.9"/>
				</g>
			</g>
			<g id="XMLID_499_" class="st3">
				<defs>
					<path id="XMLID_502_" class="st3" d="M177.1,241.8l1.8,1.8c0,0,0,0,0.1,0.1L177.1,241.8C177.2,241.8,177.1,241.8,177.1,241.8z"
						/>
				</defs>
				<clipPath id="XMLID_91_">
					<use xlink:href="#XMLID_502_"  style="overflow:visible;"/>
				</clipPath>
				<g id="XMLID_500_" class="st28">
					<path id="XMLID_501_" class="st4" d="M177.1,241.8l1.8,1.8c0,0,0,0,0.1,0.1L177.1,241.8C177.2,241.8,177.1,241.8,177.1,241.8"
						/>
				</g>
			</g>
			<g id="XMLID_495_" class="st3">
				<defs>
					<path id="XMLID_498_" class="st3" d="M179.2,243.9l-1.8-1.8c0,0,0,0,0,0L179.2,243.9C179.2,243.9,179.2,243.9,179.2,243.9z"/>
				</defs>
				<clipPath id="XMLID_92_">
					<use xlink:href="#XMLID_498_"  style="overflow:visible;"/>
				</clipPath>
				<g id="XMLID_496_" class="st29">
					<path id="XMLID_497_" class="st4" d="M177.4,242l1.8,1.8c0,0,0,0,0,0L177.4,242C177.4,242.1,177.4,242,177.4,242"/>
				</g>
			</g>
			<g id="XMLID_491_" class="st3">
				<defs>
					<path id="XMLID_494_" class="st3" d="M176.9,242.4l-1.8-1.8c0.7,0.7,1.5,1.3,2.3,1.9l1.8,1.8
						C178.3,243.8,177.6,243.1,176.9,242.4z"/>
				</defs>
				<clipPath id="XMLID_93_">
					<use xlink:href="#XMLID_494_"  style="overflow:visible;"/>
				</clipPath>
				<g id="XMLID_492_" class="st30">
					<path id="XMLID_493_" class="st4" d="M177.4,242.5l1.8,1.8c-0.9-0.6-1.6-1.2-2.3-1.9l-1.8-1.8
						C175.8,241.3,176.6,241.9,177.4,242.5"/>
				</g>
			</g>
			<g id="XMLID_487_" class="st3">
				<defs>
					<path id="XMLID_490_" class="st3" d="M261.6,163.3c-0.4,0-0.8-0.1-1.3-0.1c-0.3-0.3-0.7-0.7-1-1c-0.1-0.1-0.2-0.2-0.2-0.2
						c-0.1-0.1-0.2-0.2-0.3-0.3c-0.1-0.1-0.2-0.1-0.2-0.2c0.4,0,0.9,0,1.3,0.1C260.4,162.1,261,162.7,261.6,163.3z"/>
				</defs>
				<clipPath id="XMLID_94_">
					<use xlink:href="#XMLID_490_"  style="overflow:visible;"/>
				</clipPath>
				<g id="XMLID_488_" class="st31">
					<path id="XMLID_489_" class="st4" d="M261.9,161.7l1.8,1.8c0,0-0.1,0-0.1,0c-0.1,0-0.2,0-0.2,0c-0.1,0-0.1,0-0.2,0
						c-0.1,0-0.1,0-0.1,0c-0.1,0-0.1,0-0.2,0c0,0-0.1,0-0.1,0c0,0-0.1,0-0.1,0c-0.1,0-0.1,0-0.2,0c-0.2,0-0.3,0-0.5-0.1
						c-0.1,0-0.1,0-0.2,0c-0.1,0-0.1,0-0.2,0c-0.4,0-0.8-0.1-1.3-0.1c0,0-0.1,0-0.1,0c-0.5,0-1,0-1.6,0c0,0,0,0-0.1,0
						c-0.4,0-0.9,0-1.3,0c-0.1,0-0.2,0-0.3,0c0,0,0,0-0.1,0c-0.2,0-0.4,0-0.6,0c-0.1,0-0.2,0-0.3,0c0,0-0.1,0-0.1,0c0,0,0,0-0.1,0
						c-0.1,0-0.2,0-0.3,0c-0.1,0-0.1,0-0.2,0c-0.1,0-0.2,0-0.2,0c-0.1,0-0.1,0-0.2,0c-0.1,0-0.1,0-0.2,0c-0.1,0-0.3,0-0.4,0
						c-0.1,0-0.1,0-0.2,0c-0.1,0-0.2,0-0.3,0c-0.1,0-0.1,0-0.2,0c-0.1,0-0.2,0-0.3,0c0,0-0.1,0-0.1,0c-0.1,0-0.3,0-0.5,0.1
						c-0.2,0-0.3,0-0.5,0.1c0,0-0.1,0-0.1,0c-0.3,0-0.5,0.1-0.8,0.1c0,0-0.1,0-0.1,0c-0.3,0-0.6,0.1-0.9,0.2c0,0-0.1,0-0.1,0
						c-0.3,0.1-0.6,0.1-0.9,0.2c0,0-0.1,0-0.1,0c-0.3,0.1-0.6,0.1-0.9,0.2c0,0,0,0-0.1,0c-0.3,0.1-0.7,0.1-1,0.2
						c-0.4,0.1-0.7,0.2-1.1,0.3l-1.8-1.8c0.3-0.1,0.7-0.2,1.1-0.3c0.3-0.1,0.7-0.2,1-0.2c0,0,0,0,0.1,0c0.3-0.1,0.6-0.1,0.9-0.2
						c0,0,0.1,0,0.1,0c0.3-0.1,0.6-0.1,0.9-0.2c0,0,0.1,0,0.1,0c0.3-0.1,0.6-0.1,0.9-0.2c0,0,0.1,0,0.1,0c0.3,0,0.5-0.1,0.8-0.1
						c0,0,0.1,0,0.1,0c0.2,0,0.3,0,0.5-0.1c0.2,0,0.3,0,0.5-0.1c0,0,0.1,0,0.1,0c0.1,0,0.2,0,0.3,0c0.1,0,0.1,0,0.2,0
						c0.1,0,0.2,0,0.3,0c0.1,0,0.1,0,0.2,0c0.1,0,0.3,0,0.4,0c0.1,0,0.1,0,0.2,0c0.1,0,0.1,0,0.2,0c0.1,0,0.2,0,0.2,0
						c0.1,0,0.1,0,0.2,0c0.1,0,0.2,0,0.3,0c0,0,0,0,0.1,0c0,0,0.1,0,0.1,0c0.1,0,0.2,0,0.3,0c0.2,0,0.4,0,0.6,0c0,0,0,0,0.1,0
						c0.1,0,0.2,0,0.3,0c0.4,0,0.9,0,1.3,0c0,0,0,0,0.1,0c0.5,0,1.1,0,1.6,0c0,0,0.1,0,0.1,0c0.4,0,0.9,0,1.3,0.1c0.1,0,0.1,0,0.2,0
						c0.1,0,0.1,0,0.2,0c0.2,0,0.3,0,0.5,0.1c0.1,0,0.1,0,0.2,0c0,0,0.1,0,0.1,0c0,0,0.1,0,0.1,0c0.1,0,0.1,0,0.2,0c0,0,0.1,0,0.1,0
						c0.1,0,0.1,0,0.2,0c0.1,0,0.2,0,0.2,0C261.8,161.7,261.9,161.7,261.9,161.7"/>
				</g>
			</g>
			<g id="XMLID_485_">
				<polygon id="XMLID_486_" class="st4" points="261.9,161.7 263.7,163.5 261.3,162 259.6,160.2 				"/>
			</g>
			<g id="XMLID_481_" class="st3">
				<defs>
					<path id="XMLID_484_" class="st3" d="M261.6,163.3C261.6,163.3,261.6,163.3,261.6,163.3c-0.6-0.6-1.2-1.2-1.8-1.8c0,0,0,0,0,0
						c0.1,0,0.1,0,0.2,0c0.1,0,0.1,0,0.2,0c0.2,0,0.3,0,0.5,0.1c0.1,0,0.1,0,0.2,0c0,0,0.1,0,0.1,0c0,0,0.1,0,0.1,0
						c0.1,0,0.1,0,0.2,0c0,0,0.1,0,0.1,0c0.1,0,0.1,0,0.2,0c0.1,0,0.2,0,0.2,0c0,0,0.1,0,0.1,0l1.8,1.8c0,0-0.1,0-0.1,0
						c-0.1,0-0.2,0-0.2,0c-0.1,0-0.1,0-0.2,0c-0.1,0-0.1,0-0.1,0c-0.1,0-0.1,0-0.2,0c0,0-0.1,0-0.1,0c0,0-0.1,0-0.1,0
						c-0.1,0-0.1,0-0.2,0c-0.2,0-0.3,0-0.5-0.1c-0.1,0-0.1,0-0.2,0C261.7,163.3,261.6,163.3,261.6,163.3z"/>
				</defs>
				<clipPath id="XMLID_95_">
					<use xlink:href="#XMLID_484_"  style="overflow:visible;"/>
				</clipPath>
				<g id="XMLID_482_" class="st32">
					<path id="XMLID_483_" class="st4" d="M261.9,161.7l1.8,1.8c0,0-0.1,0-0.1,0c-0.1,0-0.2,0-0.2,0c-0.1,0-0.1,0-0.2,0
						c-0.1,0-0.1,0-0.1,0c-0.1,0-0.1,0-0.2,0c0,0-0.1,0-0.1,0c0,0-0.1,0-0.1,0c-0.1,0-0.1,0-0.2,0c-0.2,0-0.3,0-0.5-0.1
						c-0.1,0-0.1,0-0.2,0c-0.1,0-0.1,0-0.2,0c-0.4,0-0.8-0.1-1.3-0.1c0,0-0.1,0-0.1,0c-0.5,0-1,0-1.6,0c0,0,0,0-0.1,0
						c-0.4,0-0.9,0-1.3,0c-0.1,0-0.2,0-0.3,0c0,0,0,0-0.1,0c-0.2,0-0.4,0-0.6,0c-0.1,0-0.2,0-0.3,0c0,0-0.1,0-0.1,0c0,0,0,0-0.1,0
						c-0.1,0-0.2,0-0.3,0c-0.1,0-0.1,0-0.2,0c-0.1,0-0.2,0-0.2,0c-0.1,0-0.1,0-0.2,0c-0.1,0-0.1,0-0.2,0c-0.1,0-0.3,0-0.4,0
						c-0.1,0-0.1,0-0.2,0c-0.1,0-0.2,0-0.3,0c-0.1,0-0.1,0-0.2,0c-0.1,0-0.2,0-0.3,0c0,0-0.1,0-0.1,0c-0.1,0-0.3,0-0.5,0.1
						c-0.2,0-0.3,0-0.5,0.1c0,0-0.1,0-0.1,0c-0.3,0-0.5,0.1-0.8,0.1c0,0-0.1,0-0.1,0c-0.3,0-0.6,0.1-0.9,0.2c0,0-0.1,0-0.1,0
						c-0.3,0.1-0.6,0.1-0.9,0.2c0,0-0.1,0-0.1,0c-0.3,0.1-0.6,0.1-0.9,0.2c0,0,0,0-0.1,0c-0.3,0.1-0.7,0.1-1,0.2
						c-0.4,0.1-0.7,0.2-1.1,0.3l-1.8-1.8c0.3-0.1,0.7-0.2,1.1-0.3c0.3-0.1,0.7-0.2,1-0.2c0,0,0,0,0.1,0c0.3-0.1,0.6-0.1,0.9-0.2
						c0,0,0.1,0,0.1,0c0.3-0.1,0.6-0.1,0.9-0.2c0,0,0.1,0,0.1,0c0.3-0.1,0.6-0.1,0.9-0.2c0,0,0.1,0,0.1,0c0.3,0,0.5-0.1,0.8-0.1
						c0,0,0.1,0,0.1,0c0.2,0,0.3,0,0.5-0.1c0.2,0,0.3,0,0.5-0.1c0,0,0.1,0,0.1,0c0.1,0,0.2,0,0.3,0c0.1,0,0.1,0,0.2,0
						c0.1,0,0.2,0,0.3,0c0.1,0,0.1,0,0.2,0c0.1,0,0.3,0,0.4,0c0.1,0,0.1,0,0.2,0c0.1,0,0.1,0,0.2,0c0.1,0,0.2,0,0.2,0
						c0.1,0,0.1,0,0.2,0c0.1,0,0.2,0,0.3,0c0,0,0,0,0.1,0c0,0,0.1,0,0.1,0c0.1,0,0.2,0,0.3,0c0.2,0,0.4,0,0.6,0c0,0,0,0,0.1,0
						c0.1,0,0.2,0,0.3,0c0.4,0,0.9,0,1.3,0c0,0,0,0,0.1,0c0.5,0,1.1,0,1.6,0c0,0,0.1,0,0.1,0c0.4,0,0.9,0,1.3,0.1c0.1,0,0.1,0,0.2,0
						c0.1,0,0.1,0,0.2,0c0.2,0,0.3,0,0.5,0.1c0.1,0,0.1,0,0.2,0c0,0,0.1,0,0.1,0c0,0,0.1,0,0.1,0c0.1,0,0.1,0,0.2,0c0,0,0.1,0,0.1,0
						c0.1,0,0.1,0,0.2,0c0.1,0,0.2,0,0.2,0C261.8,161.7,261.9,161.7,261.9,161.7"/>
				</g>
			</g>
			<g id="XMLID_477_" class="st3">
				<defs>
					<path id="XMLID_480_" class="st3" d="M264.1,163.6c-0.1,0-0.2,0-0.4-0.1l-1.8-1.8c0.1,0,0.2,0,0.4,0.1c0.1,0,0.1,0,0.2,0
						c0,0,0,0,0,0l1.8,1.8c0,0,0,0,0,0C264.2,163.6,264.1,163.6,264.1,163.6z"/>
				</defs>
				<clipPath id="XMLID_96_">
					<use xlink:href="#XMLID_480_"  style="overflow:visible;"/>
				</clipPath>
				<g id="XMLID_478_" class="st33">
					<path id="XMLID_479_" class="st4" d="M262.5,161.8l1.8,1.8c0,0,0,0,0,0c-0.1,0-0.1,0-0.2,0c-0.1,0-0.2,0-0.4-0.1l-1.8-1.8
						c0.1,0,0.2,0,0.4,0.1C262.3,161.8,262.4,161.8,262.5,161.8C262.5,161.8,262.5,161.8,262.5,161.8"/>
				</g>
			</g>
			<g id="XMLID_473_" class="st3">
				<defs>
					<path id="XMLID_476_" class="st3" d="M264.4,163.7C264.3,163.6,264.3,163.6,264.4,163.7l-1.9-1.8c0,0,0,0,0.1,0c0,0,0,0,0.1,0
						L264.4,163.7C264.4,163.7,264.4,163.7,264.4,163.7z"/>
				</defs>
				<clipPath id="XMLID_97_">
					<use xlink:href="#XMLID_476_"  style="overflow:visible;"/>
				</clipPath>
				<g id="XMLID_474_" class="st34">
					<path id="XMLID_475_" class="st4" d="M262.6,161.8l1.8,1.8c0,0,0,0-0.1,0c0,0,0,0-0.1,0l-1.8-1.8
						C262.5,161.8,262.6,161.8,262.6,161.8C262.6,161.8,262.6,161.8,262.6,161.8"/>
				</g>
			</g>
			<g id="XMLID_435_" class="st3">
				<defs>
					<path id="XMLID_472_" class="st3" d="M181.4,245.7c-0.1-0.1-0.2-0.2-0.3-0.3c-0.1-0.1-0.2-0.2-0.2-0.2
						c-0.1-0.1-0.2-0.2-0.4-0.4c-0.3-0.3-0.6-0.6-0.9-0.9c4.2,2.8,10.3,3.8,18.2,2.7c2.4-0.3,4.9-0.9,7.6-1.6
						c26.1-7.2,55.8-31.3,66.3-53.8c5.2-11.2,4.7-19.8-0.3-24.9l1.8,1.8c5,5,5.5,13.7,0.3,24.9c-10.5,22.5-40.2,46.6-66.3,53.8
						c-2.7,0.7-5.2,1.3-7.6,1.6C191.7,249.5,185.5,248.5,181.4,245.7z"/>
				</defs>
				<clipPath id="XMLID_98_">
					<use xlink:href="#XMLID_472_"  style="overflow:visible;"/>
				</clipPath>
				<g id="XMLID_436_" class="st35">
					<path id="XMLID_471_" class="st4" d="M271.4,166.2l1.8,1.8c0.1,0.1,0.2,0.2,0.4,0.4l-1.8-1.8
						C271.6,166.5,271.5,166.3,271.4,166.2"/>
					<path id="XMLID_470_" class="st4" d="M271.7,166.6l1.8,1.8c0.3,0.3,0.5,0.6,0.8,0.9l-1.8-1.8
						C272.3,167.2,272,166.9,271.7,166.6"/>
					<path id="XMLID_469_" class="st4" d="M272.5,167.5l1.8,1.8c0.2,0.3,0.5,0.6,0.7,1l-1.8-1.8C273,168.2,272.7,167.8,272.5,167.5"
						/>
					<path id="XMLID_468_" class="st4" d="M273.2,168.5l1.8,1.8c0.2,0.3,0.4,0.7,0.6,1l-1.8-1.8
						C273.6,169.2,273.4,168.8,273.2,168.5"/>
					<path id="XMLID_467_" class="st4" d="M273.7,169.5l1.8,1.8c0.2,0.3,0.3,0.7,0.5,1l-1.8-1.8
						C274.1,170.2,273.9,169.8,273.7,169.5"/>
					<path id="XMLID_466_" class="st4" d="M274.2,170.5l1.8,1.8c0.1,0.4,0.3,0.7,0.4,1.1l-1.8-1.8
						C274.5,171.3,274.3,170.9,274.2,170.5"/>
					<path id="XMLID_465_" class="st4" d="M274.6,171.6l1.8,1.8c0.1,0.4,0.2,0.8,0.3,1.1l-1.8-1.8
						C274.8,172.4,274.7,172,274.6,171.6"/>
					<path id="XMLID_464_" class="st4" d="M274.9,172.8l1.8,1.8c0.1,0.4,0.2,0.8,0.2,1.2l-1.8-1.8
						C275.1,173.6,275,173.2,274.9,172.8"/>
					<path id="XMLID_463_" class="st4" d="M275.1,174l1.8,1.8c0.1,0.4,0.1,0.9,0.1,1.3l-1.8-1.8C275.2,174.9,275.2,174.4,275.1,174"
						/>
					<path id="XMLID_462_" class="st4" d="M275.3,175.3l1.8,1.8c0,0.5,0.1,0.9,0.1,1.4l-1.8-1.8
						C275.3,176.2,275.3,175.8,275.3,175.3"/>
					<path id="XMLID_461_" class="st4" d="M275.3,176.7l1.8,1.8c0,0.5,0,1,0,1.6l-1.8-1.8C275.3,177.8,275.3,177.2,275.3,176.7"/>
					<path id="XMLID_460_" class="st4" d="M275.3,178.3l1.8,1.8c0,0.6-0.1,1.2-0.2,1.8l-1.8-1.8
						C275.2,179.5,275.2,178.9,275.3,178.3"/>
					<path id="XMLID_459_" class="st4" d="M275.1,180.1l1.8,1.8c-0.1,0.7-0.2,1.5-0.4,2.3l-1.8-1.8
						C274.8,181.6,275,180.9,275.1,180.1"/>
					<path id="XMLID_458_" class="st4" d="M274.7,182.4l1.8,1.8c-0.2,1-0.5,2.1-0.9,3.2l-1.8-1.8
						C274.2,184.5,274.4,183.5,274.7,182.4"/>
					<path id="XMLID_457_" class="st4" d="M273.8,185.6l1.8,1.8c-0.6,1.7-1.3,3.6-2.2,5.5c-1.5,3.1-3.3,6.3-5.4,9.4l-1.8-1.8
						c2.1-3.1,4-6.3,5.4-9.4C272.5,189.2,273.2,187.4,273.8,185.6"/>
					<path id="XMLID_456_" class="st4" d="M266.2,200.5l1.8,1.8c-0.8,1.2-1.6,2.3-2.5,3.5l-1.8-1.8
						C264.6,202.9,265.4,201.7,266.2,200.5"/>
					<path id="XMLID_455_" class="st4" d="M263.7,204l1.8,1.8c-0.7,0.9-1.4,1.8-2.1,2.7l-1.8-1.8C262.3,205.8,263,204.9,263.7,204"
						/>
					<path id="XMLID_454_" class="st4" d="M261.6,206.7l1.8,1.8c-0.7,0.8-1.4,1.6-2.1,2.4l-1.8-1.8
						C260.2,208.4,260.9,207.6,261.6,206.7"/>
					<path id="XMLID_453_" class="st4" d="M259.5,209.2l1.8,1.8c-0.7,0.8-1.4,1.5-2.1,2.3l-1.8-1.8
						C258.2,210.7,258.8,210,259.5,209.2"/>
					<path id="XMLID_452_" class="st4" d="M257.5,211.5l1.8,1.8c-0.7,0.7-1.4,1.5-2.1,2.2l-1.8-1.8
						C256.1,213,256.8,212.2,257.5,211.5"/>
					<path id="XMLID_451_" class="st4" d="M255.4,213.7l1.8,1.8c-0.7,0.7-1.4,1.5-2.2,2.2l-1.8-1.8
						C253.9,215.2,254.7,214.4,255.4,213.7"/>
					<path id="XMLID_450_" class="st4" d="M253.2,215.9l1.8,1.8c-0.7,0.7-1.5,1.5-2.3,2.2l-1.8-1.8
						C251.7,217.3,252.4,216.6,253.2,215.9"/>
					<path id="XMLID_449_" class="st4" d="M250.9,218.1l1.8,1.8c-0.8,0.7-1.6,1.5-2.4,2.2l-1.8-1.8
						C249.3,219.5,250.1,218.8,250.9,218.1"/>
					<path id="XMLID_448_" class="st4" d="M248.5,220.2l1.8,1.8c-0.8,0.7-1.7,1.5-2.5,2.2l-1.8-1.8
						C246.8,221.7,247.7,221,248.5,220.2"/>
					<path id="XMLID_447_" class="st4" d="M246,222.4l1.8,1.8c-0.9,0.7-1.7,1.4-2.6,2.2l-1.8-1.8C244.3,223.9,245.1,223.1,246,222.4
						"/>
					<path id="XMLID_446_" class="st4" d="M243.4,224.6l1.8,1.8c-0.9,0.7-1.8,1.4-2.8,2.1l-1.8-1.8
						C241.5,226,242.5,225.3,243.4,224.6"/>
					<path id="XMLID_445_" class="st4" d="M240.6,226.7l1.8,1.8c-1,0.7-1.9,1.4-2.9,2.1l-1.8-1.8
						C238.7,228.1,239.7,227.4,240.6,226.7"/>
					<path id="XMLID_444_" class="st4" d="M237.7,228.8l1.8,1.8c-1,0.7-2,1.4-3.1,2.1l-1.8-1.8C235.7,230.3,236.7,229.6,237.7,228.8
						"/>
					<path id="XMLID_443_" class="st4" d="M234.6,231l1.8,1.8c-1.1,0.7-2.2,1.4-3.3,2.1l-1.8-1.8C232.5,232.4,233.5,231.7,234.6,231
						"/>
					<path id="XMLID_442_" class="st4" d="M231.4,233.1l1.8,1.8c-1.2,0.7-2.3,1.4-3.5,2.1l-1.8-1.8
						C229.1,234.5,230.2,233.8,231.4,233.1"/>
					<path id="XMLID_441_" class="st4" d="M227.9,235.2l1.8,1.8c-1.2,0.7-2.5,1.4-3.8,2.1l-1.8-1.8
						C225.4,236.6,226.6,235.9,227.9,235.2"/>
					<path id="XMLID_440_" class="st4" d="M224.1,237.3l1.8,1.8c-1.4,0.7-2.8,1.4-4.2,2.1l-1.8-1.8
						C221.4,238.7,222.7,238,224.1,237.3"/>
					<path id="XMLID_439_" class="st4" d="M220,239.4l1.8,1.8c-1.6,0.8-3.2,1.5-4.8,2.1l-1.8-1.8C216.8,240.9,218.4,240.1,220,239.4
						"/>
					<path id="XMLID_438_" class="st4" d="M215.2,241.5l1.8,1.8c-1.9,0.8-3.9,1.5-5.8,2.2l-1.8-1.8
						C211.3,243.1,213.3,242.3,215.2,241.5"/>
					<path id="XMLID_437_" class="st4" d="M209.4,243.7l1.8,1.8c-1.4,0.5-2.7,0.9-4.1,1.2c-2.7,0.7-5.2,1.3-7.6,1.6
						c-7.8,1.1-14,0.1-18.2-2.7l-1.8-1.8c4.2,2.8,10.3,3.8,18.2,2.7c2.4-0.3,4.9-0.9,7.6-1.6C206.7,244.6,208.1,244.2,209.4,243.7"
						/>
				</g>
			</g>
			<g id="XMLID_433_">
				<path id="XMLID_434_" class="st4" d="M179.3,243.7c0,0,0.1,0,0.1,0.1c0.1,0.1,0.2,0.1,0.3,0.2l-2.3-1.5
					c-7.1-4.6-8.5-14.1-2.6-26.8c0.1-0.2,0.2-0.3,0.2-0.5c0.1-0.2,0.2-0.4,0.3-0.5c0.1-0.2,0.2-0.4,0.3-0.5c0.1-0.2,0.2-0.4,0.2-0.5
					c0,0,0-0.1,0.1-0.1c0.1-0.2,0.2-0.3,0.2-0.5c0.1-0.2,0.2-0.3,0.3-0.5c0,0,0-0.1,0.1-0.1c0.1-0.1,0.1-0.2,0.2-0.4
					c0-0.1,0.1-0.1,0.1-0.2c0.1-0.1,0.1-0.2,0.2-0.4c0,0,0-0.1,0.1-0.1c0.1-0.2,0.2-0.3,0.3-0.5c0.1-0.2,0.2-0.4,0.3-0.5
					c0,0,0.1-0.1,0.1-0.1c0.1-0.1,0.1-0.2,0.2-0.4c0,0,0.1-0.1,0.1-0.1c0.1-0.2,0.2-0.3,0.3-0.5c0.1-0.2,0.2-0.3,0.3-0.5
					c0,0,0.1-0.1,0.1-0.1c0.1-0.1,0.2-0.2,0.2-0.4c0-0.1,0.1-0.1,0.1-0.2c0.1-0.1,0.2-0.3,0.2-0.4c0.2-0.3,0.3-0.4,0.4-0.6
					c0,0,0-0.1,0.1-0.1c0.1-0.1,0.2-0.3,0.3-0.4c0-0.1,0.1-0.1,0.1-0.2c0.2-0.3,0.4-0.6,0.6-1c0.1-0.2,0.3-0.4,0.4-0.5
					c0.1-0.2,0.3-0.4,0.4-0.5c0.1-0.2,0.2-0.3,0.3-0.5c0,0,0.1-0.1,0.1-0.1c0.1-0.1,0.1-0.2,0.2-0.3c0.1-0.1,0.2-0.3,0.3-0.4
					c0-0.1,0.1-0.1,0.1-0.2c0.1-0.2,0.2-0.3,0.4-0.5l2.4,1.4c-0.1,0.1-0.1,0.2-0.2,0.3c0,0-0.1,0.1-0.1,0.1
					c-0.1,0.1-0.2,0.3-0.3,0.4c0,0-0.1,0.1-0.1,0.1c-0.5,0.7-1,1.3-1.4,2c-0.2,0.2-0.3,0.4-0.4,0.5c0,0-0.1,0.1-0.1,0.1
					c-0.1,0.2-0.2,0.3-0.3,0.5c-0.4,0.5-0.7,1-1,1.5c0,0-0.1,0.1-0.1,0.1c-0.1,0.1-0.2,0.3-0.3,0.4c0,0.1-0.1,0.1-0.1,0.2
					c-0.1,0.1-0.2,0.3-0.2,0.4c0,0.1-0.1,0.1-0.1,0.2c-0.1,0.1-0.2,0.3-0.2,0.4c0,0.1-0.1,0.1-0.1,0.2c-0.1,0.2-0.3,0.5-0.4,0.7
					c-0.1,0.1-0.1,0.2-0.2,0.3c-0.1,0.1-0.1,0.2-0.2,0.3c-0.1,0.1-0.1,0.2-0.2,0.3c-0.1,0.1-0.1,0.2-0.2,0.3
					c-0.1,0.1-0.1,0.2-0.2,0.4c0,0.1-0.1,0.2-0.1,0.2c-0.1,0.2-0.2,0.4-0.3,0.5c-0.1,0.2-0.2,0.4-0.3,0.5c0,0,0,0.1-0.1,0.1
					c0,0,0,0.1-0.1,0.1c0,0,0,0.1-0.1,0.1c0,0,0,0.1-0.1,0.1c0,0,0,0.1-0.1,0.1c-0.1,0.1-0.1,0.2-0.1,0.2c0,0.1-0.1,0.1-0.1,0.2
					c-0.1,0.2-0.1,0.3-0.2,0.3c0,0.1-0.1,0.1-0.1,0.2c-0.1,0.2-0.1,0.2-0.1,0.2c-0.1,0.1-0.1,0.2-0.2,0.3c-0.1,0.1-0.1,0.3-0.2,0.4
					c0,0,0,0.1-0.1,0.1c0,0.1,0,0.1-0.1,0.1c0,0.1-0.1,0.2-0.1,0.2c0,0,0,0.1-0.1,0.1c-0.1,0.3-0.2,0.4-0.2,0.4
					c0,0.1-0.1,0.2-0.1,0.3c0,0.1-0.1,0.2-0.1,0.3c0,0.1,0,0.1-0.1,0.2c-0.1,0.2-0.1,0.2-0.1,0.3c-0.1,0.1-0.1,0.2-0.1,0.2
					c0,0.1-0.1,0.2-0.1,0.2c-0.1,0.2-0.2,0.4-0.2,0.6c-0.1,0.2-0.1,0.4-0.2,0.6c0,0.1,0,0.1-0.1,0.2c0,0.1-0.1,0.2-0.1,0.3
					c0,0.1-0.1,0.2-0.1,0.2c0,0.1-0.1,0.2-0.1,0.3c0,0.1-0.1,0.2-0.1,0.2c0,0.1-0.1,0.2-0.1,0.3c0,0.1-0.1,0.2-0.1,0.2
					c0,0.1-0.1,0.2-0.1,0.3c0,0.1,0,0.2-0.1,0.2c0,0.1-0.1,0.2-0.1,0.3c0,0.1,0,0.2-0.1,0.2c0,0.1-0.1,0.2-0.1,0.3
					c0,0.1,0,0.2-0.1,0.2c0,0.1,0,0.2-0.1,0.3c0,0.1,0,0.1-0.1,0.2c0,0.1,0,0.2-0.1,0.3c0,0.1,0,0.1,0,0.2c0,0.1-0.1,0.3-0.1,0.4
					c0,0.1,0,0.1,0,0.2c0,0.1-0.1,0.3-0.1,0.4c0,0.1,0,0.1,0,0.2c0,0.1,0,0.2-0.1,0.3c0,0.1,0,0.1,0,0.2c0,0.1,0,0.2,0,0.3
					c0,0.1,0,0.1,0,0.2c0,0.1,0,0.2,0,0.3c0,0.1,0,0.1,0,0.2c0,0.1,0,0.2,0,0.3c0,0.1,0,0.1,0,0.2c0,0.1,0,0.2,0,0.3
					c0,0.1,0,0.1,0,0.2c0,0.1,0,0.2,0,0.3c0,0.1,0,0.1,0,0.2c0,0.1,0,0.2,0,0.3c0,0.1,0,0.1,0,0.2c0,0.1,0,0.2,0,0.3
					c0,0.1,0,0.1,0,0.2c0,0.1,0,0.3,0,0.4c0,0,0,0.1,0,0.1c0,0.1,0,0.2,0,0.3c0,0.1,0,0.1,0,0.2c0,0.1,0,0.2,0,0.3
					c0,0.1,0,0.1,0,0.2c0,0.1,0,0.2,0,0.2c0,0.1,0,0.1,0,0.2c0,0.1,0,0.2,0,0.2c0,0.1,0,0.1,0,0.2c0,0.1,0,0.2,0,0.2
					c0,0.1,0,0.1,0,0.2c0,0.1,0,0.2,0,0.2c0,0.1,0,0.1,0,0.2c0,0.1,0,0.2,0,0.2c0,0.1,0,0.1,0,0.2c0,0.1,0,0.2,0,0.2
					c0,0.1,0,0.1,0,0.2c0,0.1,0,0.2,0.1,0.3c0,0,0,0.1,0,0.1c0,0.1,0,0.3,0.1,0.4c0,0,0,0.1,0,0.1c0,0.1,0,0.2,0.1,0.2
					c0,0.1,0,0.1,0,0.2c0,0.1,0,0.1,0.1,0.2c0,0.1,0,0.1,0,0.2c0,0.1,0,0.1,0.1,0.2c0,0.1,0,0.1,0,0.2c0,0.1,0,0.1,0.1,0.2
					c0,0.1,0,0.1,0.1,0.2c0,0.1,0,0.1,0.1,0.2c0,0.1,0,0.1,0.1,0.2c0,0.1,0,0.1,0.1,0.2c0,0.1,0,0.1,0.1,0.1c0,0.1,0.1,0.1,0.1,0.2
					c0,0,0,0.1,0.1,0.1c0,0.1,0.1,0.2,0.1,0.2c0,0,0,0.1,0,0.1c0.1,0.1,0.1,0.2,0.2,0.3c0.1,0.1,0.1,0.2,0.2,0.3c0,0,0,0.1,0.1,0.1
					c0,0.1,0.1,0.1,0.1,0.2c0,0,0,0.1,0.1,0.1c0,0.1,0.1,0.1,0.1,0.2c0,0,0.1,0.1,0.1,0.1c0,0.1,0.1,0.1,0.1,0.2
					c0,0,0.1,0.1,0.1,0.1c0,0.1,0.1,0.1,0.1,0.2c0,0,0.1,0.1,0.1,0.1c0,0.1,0.1,0.1,0.1,0.2c0,0,0.1,0.1,0.1,0.1
					c0,0.1,0.1,0.1,0.1,0.2c0,0,0.1,0.1,0.1,0.1c0,0.1,0.1,0.1,0.1,0.2c0,0,0.1,0.1,0.1,0.1c0.1,0.1,0.1,0.1,0.2,0.2
					c0,0,0,0,0.1,0.1c0.1,0.1,0.2,0.2,0.2,0.3c0,0,0,0,0.1,0.1c0.1,0.1,0.1,0.1,0.2,0.2c0,0,0.1,0.1,0.1,0.1
					c0.1,0.1,0.1,0.1,0.2,0.2c0,0,0.1,0.1,0.1,0.1c0.1,0,0.1,0.1,0.2,0.1c0,0,0.1,0.1,0.1,0.1c0.1,0,0.1,0.1,0.2,0.1
					c0,0,0.1,0.1,0.1,0.1c0.1,0,0.1,0.1,0.2,0.1c0,0,0.1,0.1,0.1,0.1c0.1,0,0.1,0.1,0.2,0.1c0,0,0.1,0.1,0.1,0.1
					c0.1,0,0.1,0.1,0.2,0.1c0,0,0.1,0.1,0.1,0.1C179.2,243.6,179.3,243.7,179.3,243.7z"/>
			</g>
			<g id="XMLID_429_" class="st3">
				<defs>
					<path id="XMLID_432_" class="st3" d="M264.8,163.7c-0.1,0-0.2-0.1-0.4-0.1l-1.8-1.8c0.1,0,0.2,0,0.4,0.1c0,0,0.1,0,0.1,0
						c0.2,0,0.4,0.1,0.6,0.1c0,0,0,0,0.1,0l1.8,1.8c0,0,0,0-0.1,0c-0.2-0.1-0.4-0.1-0.6-0.1C264.8,163.8,264.8,163.7,264.8,163.7z"
						/>
				</defs>
				<clipPath id="XMLID_99_">
					<use xlink:href="#XMLID_432_"  style="overflow:visible;"/>
				</clipPath>
				<g id="XMLID_430_" class="st36">
					<path id="XMLID_431_" class="st4" d="M263.8,162.1l1.8,1.8c0,0,0,0-0.1,0c-0.2-0.1-0.4-0.1-0.6-0.1c0,0-0.1,0-0.1,0
						c-0.1,0-0.2-0.1-0.4-0.1l-1.8-1.8c0.1,0,0.2,0,0.4,0.1c0,0,0.1,0,0.1,0C263.3,162,263.5,162,263.8,162.1
						C263.7,162.1,263.8,162.1,263.8,162.1"/>
				</g>
			</g>
			<g id="XMLID_425_" class="st3">
				<defs>
					<path id="XMLID_428_" class="st3" d="M265.6,163.9C265.6,163.9,265.6,163.9,265.6,163.9l-1.9-1.8c0,0,0,0,0.1,0
						c0.1,0,0.2,0.1,0.3,0.1c0.1,0,0.1,0,0.2,0.1c0,0,0.1,0,0.1,0c0.1,0,0.2,0.1,0.3,0.1c0,0,0,0,0.1,0l1.8,1.8c0,0,0,0-0.1,0
						c-0.1,0-0.2-0.1-0.3-0.1c0,0-0.1,0-0.1,0c-0.1,0-0.1,0-0.2-0.1C265.8,164,265.7,164,265.6,163.9z"/>
				</defs>
				<clipPath id="XMLID_100_">
					<use xlink:href="#XMLID_428_"  style="overflow:visible;"/>
				</clipPath>
				<g id="XMLID_426_" class="st37">
					<path id="XMLID_427_" class="st4" d="M264.8,162.4l1.8,1.8c0,0,0,0-0.1,0c-0.1,0-0.2-0.1-0.3-0.1c0,0-0.1,0-0.1,0
						c-0.1,0-0.1,0-0.2-0.1c-0.1,0-0.2-0.1-0.3-0.1c0,0,0,0-0.1,0l-1.8-1.8c0,0,0,0,0.1,0c0.1,0,0.2,0.1,0.3,0.1
						c0.1,0,0.1,0,0.2,0.1c0,0,0.1,0,0.1,0C264.6,162.3,264.7,162.4,264.8,162.4C264.8,162.4,264.8,162.4,264.8,162.4"/>
				</g>
			</g>
			<g id="XMLID_423_">
				<polygon id="XMLID_424_" class="st4" points="268,163.7 269.8,165.6 267.6,164.1 265.8,162.3 				"/>
			</g>
			<g id="XMLID_419_" class="st3">
				<defs>
					<path id="XMLID_422_" class="st3" d="M266.7,164.2c0,0-0.1,0-0.1,0l-1.8-1.8c0,0,0.1,0,0.1,0c0,0,0.1,0,0.1,0c0,0,0.1,0,0.1,0
						c0,0,0.1,0,0.1,0c0.2,0.1,0.3,0.1,0.5,0.2c0.1,0,0.2,0.1,0.2,0.1c0.2,0.1,0.3,0.1,0.5,0.2c0.1,0,0.1,0.1,0.2,0.1
						c0.1,0.1,0.2,0.1,0.4,0.2c0.1,0.1,0.1,0.1,0.2,0.2c0.1,0.1,0.2,0.2,0.2,0.2c0.2,0.2,0.3,0.3,0.5,0.5c0.1,0.1,0.2,0.2,0.2,0.2
						c0.1,0.1,0.2,0.2,0.2,0.2c0.1,0.1,0.2,0.2,0.2,0.2c0.1,0.1,0.1,0.1,0.2,0.2c-0.1-0.1-0.2-0.1-0.4-0.2c-0.1,0-0.1-0.1-0.2-0.1
						c-0.2-0.1-0.3-0.1-0.5-0.2c-0.1,0-0.2-0.1-0.2-0.1c-0.2-0.1-0.3-0.1-0.5-0.2c0,0-0.1,0-0.1,0c0,0-0.1,0-0.1,0
						C266.8,164.3,266.8,164.3,266.7,164.2z"/>
				</defs>
				<clipPath id="XMLID_101_">
					<use xlink:href="#XMLID_422_"  style="overflow:visible;"/>
				</clipPath>
				<g id="XMLID_420_" class="st38">
					<path id="XMLID_421_" class="st4" d="M268,163.7l1.8,1.8c0,0,0,0,0,0c-0.2-0.1-0.4-0.2-0.6-0.3c0,0-0.1,0-0.1-0.1
						c-0.2-0.1-0.4-0.2-0.5-0.2c-0.1,0-0.1-0.1-0.2-0.1c-0.2-0.1-0.3-0.1-0.5-0.2c-0.1,0-0.2-0.1-0.2-0.1c-0.2-0.1-0.3-0.1-0.5-0.2
						c0,0-0.1,0-0.1,0c0,0-0.1,0-0.1,0c0,0-0.1,0-0.1,0c0,0-0.1,0-0.1,0l-1.8-1.8c0,0,0.1,0,0.1,0c0,0,0.1,0,0.1,0c0,0,0.1,0,0.1,0
						c0,0,0.1,0,0.1,0c0.2,0.1,0.3,0.1,0.5,0.2c0.1,0,0.2,0.1,0.2,0.1c0.2,0.1,0.3,0.1,0.5,0.2c0.1,0,0.1,0.1,0.2,0.1
						c0.2,0.1,0.4,0.2,0.5,0.2c0,0,0.1,0,0.1,0.1C267.6,163.5,267.8,163.6,268,163.7C268,163.7,268,163.7,268,163.7"/>
				</g>
			</g>
			<g id="XMLID_415_" class="st3">
				<defs>
					<path id="XMLID_418_" class="st3" d="M269.1,165.2c-0.1,0-0.1-0.1-0.2-0.1c-0.6-0.6-1.2-1.2-1.8-1.8c0,0,0,0,0,0
						c0.1,0.1,0.1,0.1,0.2,0.2c0.1,0.1,0.2,0.2,0.2,0.2c0.1,0.1,0.2,0.2,0.2,0.2c0.1,0.1,0.2,0.2,0.2,0.2s0.2,0.2,0.2,0.2
						c0.1,0.1,0.2,0.2,0.2,0.2c0.1,0.1,0.2,0.2,0.2,0.2c0.1,0.1,0.1,0.1,0.2,0.2c-0.6-0.6-1.2-1.2-1.8-1.8c0.1,0,0.1,0,0.2,0.1
						c0,0,0.1,0,0.1,0.1c0.2,0.1,0.4,0.2,0.6,0.3c0,0,0,0,0,0l1.8,1.8c0,0,0,0,0,0c-0.2-0.1-0.4-0.2-0.6-0.3
						C269.1,165.2,269.1,165.2,269.1,165.2z"/>
				</defs>
				<clipPath id="XMLID_102_">
					<use xlink:href="#XMLID_418_"  style="overflow:visible;"/>
				</clipPath>
				<g id="XMLID_416_" class="st39">
					<path id="XMLID_417_" class="st4" d="M268,163.7l1.8,1.8c0,0,0,0,0,0c-0.2-0.1-0.4-0.2-0.6-0.3c0,0-0.1,0-0.1-0.1
						c-0.2-0.1-0.4-0.2-0.5-0.2c-0.1,0-0.1-0.1-0.2-0.1c-0.2-0.1-0.3-0.1-0.5-0.2c-0.1,0-0.2-0.1-0.2-0.1c-0.2-0.1-0.3-0.1-0.5-0.2
						c0,0-0.1,0-0.1,0c0,0-0.1,0-0.1,0c0,0-0.1,0-0.1,0c0,0-0.1,0-0.1,0l-1.8-1.8c0,0,0.1,0,0.1,0c0,0,0.1,0,0.1,0c0,0,0.1,0,0.1,0
						c0,0,0.1,0,0.1,0c0.2,0.1,0.3,0.1,0.5,0.2c0.1,0,0.2,0.1,0.2,0.1c0.2,0.1,0.3,0.1,0.5,0.2c0.1,0,0.1,0.1,0.2,0.1
						c0.2,0.1,0.4,0.2,0.5,0.2c0,0,0.1,0,0.1,0.1C267.6,163.5,267.8,163.6,268,163.7C268,163.7,268,163.7,268,163.7"/>
				</g>
			</g>
			<g id="XMLID_413_">
				<path id="XMLID_414_" class="st4" d="M265.8,162.3l2.3,1.5c0,0,0,0,0,0c-0.2-0.1-0.4-0.2-0.6-0.3c0,0-0.1,0-0.1-0.1
					c-0.2-0.1-0.4-0.2-0.5-0.2c-0.1,0-0.1-0.1-0.2-0.1c-0.2-0.1-0.3-0.1-0.5-0.2c-0.1,0-0.2-0.1-0.2-0.1c-0.2-0.1-0.3-0.1-0.5-0.2
					c0,0-0.1,0-0.1,0c0,0-0.1,0-0.1,0c0,0-0.1,0-0.1,0c0,0-0.1,0-0.1,0c0,0,0,0-0.1,0c-0.1,0-0.2-0.1-0.3-0.1c0,0-0.1,0-0.1,0
					c-0.1,0-0.1,0-0.2-0.1c-0.1,0-0.2-0.1-0.3-0.1c0,0,0,0-0.1,0c0,0,0,0-0.1,0c-0.2-0.1-0.4-0.1-0.6-0.1c0,0-0.1,0-0.1,0
					c-0.1,0-0.2-0.1-0.4-0.1c0,0,0,0-0.1,0c0,0,0,0-0.1,0c0,0,0,0,0,0c-0.1,0-0.1,0-0.2,0c-0.1,0-0.2,0-0.4-0.1l-2.3-1.5
					c0.3,0,0.5,0.1,0.7,0.1c0.2,0,0.5,0.1,0.7,0.1c0,0,0.1,0,0.1,0c0.2,0,0.4,0.1,0.5,0.1c0.1,0,0.1,0,0.2,0.1
					c0.1,0,0.3,0.1,0.4,0.1c0.1,0,0.2,0.1,0.3,0.1c0,0,0.1,0,0.1,0c0.2,0.1,0.3,0.1,0.5,0.2c0,0,0.1,0,0.1,0c0.1,0,0.2,0.1,0.3,0.1
					c0.1,0,0.2,0.1,0.3,0.1c0.1,0,0.2,0.1,0.3,0.1c0.1,0,0.2,0.1,0.3,0.1c0.1,0,0.2,0.1,0.3,0.1c0.1,0,0.2,0.1,0.3,0.1
					c0.1,0,0.2,0.1,0.3,0.1C265.5,162.1,265.6,162.2,265.8,162.3C265.7,162.2,265.7,162.3,265.8,162.3z"/>
			</g>
			<g id="XMLID_142_" class="st3">
				<defs>
					<path id="XMLID_145_" class="st3" d="M269,164.3l1.8,1.8c-0.2-0.1-0.3-0.2-0.5-0.3c-0.1,0-0.1-0.1-0.2-0.1
						c-0.1-0.1-0.2-0.1-0.3-0.2l-1.8-1.8c0.1,0.1,0.2,0.1,0.3,0.2c0.1,0,0.1,0.1,0.2,0.1C268.7,164.1,268.9,164.2,269,164.3z"/>
				</defs>
				<clipPath id="XMLID_103_">
					<use xlink:href="#XMLID_145_"  style="overflow:visible;"/>
				</clipPath>
				<g id="XMLID_143_" class="st40">
					<path id="XMLID_144_" class="st4" d="M269,164.3l1.8,1.8c-0.2-0.1-0.3-0.2-0.5-0.3c-0.1,0-0.1-0.1-0.2-0.1
						c-0.1-0.1-0.2-0.1-0.3-0.2l-1.8-1.8c0.1,0.1,0.2,0.1,0.3,0.2c0.1,0,0.1,0.1,0.2,0.1C268.7,164.1,268.9,164.2,269,164.3"/>
				</g>
			</g>
			<g id="XMLID_140_">
				<path id="XMLID_141_" class="st4" d="M251.1,161.8c0.1,0,0.3,0,0.4-0.1c0.2,0,0.3,0,0.4-0.1c0.3,0,0.3,0,0.4-0.1
					c0.3,0,0.4,0,0.6-0.1c0.9-0.1,1-0.1,1.1-0.1c0.4,0,0.7,0,1-0.1c0.2,0,0.3,0,0.4,0c1.5-0.1,3,0,4.3,0.1c0.4,0,0.8,0.1,1.2,0.1
					c0.7,0.1,0.8,0.1,0.9,0.1c0.2,0,0.4,0.1,0.5,0.1c0.1,0,0.2,0,0.3,0.1c0.2,0,0.3,0.1,0.4,0.1c12,2.6,16,13.4,8.7,29.2
					c-10.5,22.5-40.2,46.6-66.3,53.8c-2.7,0.7-5.2,1.3-7.6,1.6c-7.8,1.1-14,0.1-18.2-2.7l0.2,0.1c-6.4-4.1-8.2-12.3-4.1-23.3
					c0.1-0.2,0.1-0.4,0.2-0.5c0.2-0.6,0.3-0.7,0.3-0.8c0.2-0.5,0.2-0.6,0.3-0.7c0.3-0.7,0.4-0.8,0.4-0.9c0.1-0.3,0.2-0.4,0.2-0.5
					c10.5-22.5,40.2-46.6,66.3-53.8C246.1,162.6,248.7,162.1,251.1,161.8z"/>
			</g>
			<g id="XMLID_138_">
				<path id="XMLID_139_" class="st4" d="M244.5,163.1c-0.4,0.1-0.7,0.2-1.1,0.3l-2.3-1.5c0.3-0.1,0.7-0.2,1-0.3
					c0.1,0,0.2-0.1,0.3-0.1c0.2-0.1,0.4-0.1,0.7-0.2c0.1,0,0.3-0.1,0.4-0.1c0.2,0,0.4-0.1,0.6-0.1c0.2,0,0.3-0.1,0.4-0.1
					c0.2,0,0.4-0.1,0.5-0.1c0.2,0,0.3-0.1,0.5-0.1c0.2,0,0.4-0.1,0.5-0.1c0.1,0,0.3-0.1,0.4-0.1c0.2,0,0.3-0.1,0.5-0.1
					c0.1,0,0.3,0,0.4-0.1c0.2,0,0.3-0.1,0.5-0.1c0.1,0,0.3,0,0.4-0.1c0.2,0,0.3,0,0.5-0.1c0.2,0,0.3,0,0.5-0.1c0.1,0,0.3,0,0.4-0.1
					c0.2,0,0.3,0,0.5-0.1c0.1,0,0.3,0,0.4,0c0.2,0,0.3,0,0.5,0c0.1,0,0.3,0,0.4,0c0.2,0,0.3,0,0.5,0c0.2,0,0.3,0,0.5,0c0,0,0,0,0,0
					c0.3,0,0.5,0,0.8,0c0,0,0,0,0.1,0c0.2,0,0.4,0,0.5,0c0.1,0,0.2,0,0.4,0c0.1,0,0.2,0,0.4,0c1.7,0,3.2,0.1,4.7,0.4l2.3,1.5
					c0,0-0.1,0-0.1,0c-0.1,0-0.2,0-0.2,0c-0.1,0-0.1,0-0.2,0c-0.1,0-0.1,0-0.1,0c-0.1,0-0.1,0-0.2,0c0,0-0.1,0-0.1,0
					c0,0-0.1,0-0.1,0c-0.1,0-0.1,0-0.2,0c-0.2,0-0.3,0-0.5-0.1c-0.1,0-0.1,0-0.2,0c-0.1,0-0.1,0-0.2,0c-0.4,0-0.8-0.1-1.3-0.1
					c0,0-0.1,0-0.1,0c-0.5,0-1,0-1.6,0c0,0,0,0-0.1,0c-0.4,0-0.9,0-1.3,0c-0.1,0-0.2,0-0.3,0c0,0,0,0-0.1,0c-0.2,0-0.4,0-0.6,0
					c-0.1,0-0.2,0-0.3,0c0,0-0.1,0-0.1,0c0,0,0,0-0.1,0c-0.1,0-0.2,0-0.3,0c-0.1,0-0.1,0-0.2,0c-0.1,0-0.2,0-0.2,0
					c-0.1,0-0.1,0-0.2,0c-0.1,0-0.1,0-0.2,0c-0.1,0-0.3,0-0.4,0c-0.1,0-0.1,0-0.2,0c-0.1,0-0.2,0-0.3,0c-0.1,0-0.1,0-0.2,0
					c-0.1,0-0.2,0-0.3,0c0,0-0.1,0-0.1,0c-0.1,0-0.3,0-0.5,0.1c-0.2,0-0.3,0-0.5,0.1c0,0-0.1,0-0.1,0c-0.3,0-0.5,0.1-0.8,0.1
					c0,0-0.1,0-0.1,0c-0.3,0-0.6,0.1-0.9,0.2c0,0-0.1,0-0.1,0c-0.3,0.1-0.6,0.1-0.9,0.2c0,0-0.1,0-0.1,0c-0.3,0.1-0.6,0.1-0.9,0.2
					c0,0,0,0-0.1,0c-0.3,0.1-0.7,0.1-1,0.2C245.2,162.9,244.8,163,244.5,163.1z"/>
			</g>
			<g id="XMLID_136_">
				<polygon id="XMLID_137_" class="st4" points="179.8,244 181.6,245.8 179.2,244.3 177.4,242.5 				"/>
			</g>
			<g id="XMLID_131_" class="st3">
				<defs>
					<path id="XMLID_134_" class="st3" d="M181.6,245.8c-0.9-0.6-1.7-1.2-2.3-1.9l-1.8-1.8c0.7,0.7,1.5,1.3,2.3,1.9
						C180.3,244.5,181,245.3,181.6,245.8z"/>
				</defs>
				<clipPath id="XMLID_106_">
					<use xlink:href="#XMLID_134_"  style="overflow:visible;"/>
				</clipPath>
				<g id="XMLID_132_" class="st41">
					<path id="XMLID_133_" class="st4" d="M179.8,244l1.8,1.8c-0.9-0.6-1.7-1.2-2.3-1.9l-1.8-1.8C178.1,242.8,178.9,243.4,179.8,244
						"/>
				</g>
			</g>
			<g id="XMLID_129_">
				<path id="XMLID_130_" class="st4" d="M266,162.4c0.1,0,0.1,0.1,0.2,0.1c0.2,0.1,0.3,0.2,0.5,0.3l2.3,1.5
					c-0.2-0.1-0.3-0.2-0.5-0.3c-0.1,0-0.1-0.1-0.2-0.1c-0.1-0.1-0.2-0.1-0.3-0.2l-2.3-1.5C265.8,162.3,265.9,162.4,266,162.4z"/>
			</g>
		</g>
	</g>
</g>
<line id="XMLID_15_" class="st0" x1="367.4" y1="392.5" x2="401.4" y2="435.1"/>
<rect id="XMLID_6_" x="129" y="238.6" class="st42" width="141.1" height="13.8"/>
<path id="XMLID_22_" class="st43" d="M131.2,305.9"/>
<g id="XMLID_7_">
	<g id="XMLID_30_">
		<g id="XMLID_33_" class="st3">
			<g id="XMLID_48_">
				<path id="XMLID_49_" class="st44" d="M427.7,159.9C427.7,159.9,427.7,159.9,427.7,159.9C427.7,159.9,427.7,159.9,427.7,159.9
					L427.7,159.9z"/>
			</g>
			<g id="XMLID_41_">
				<path id="XMLID_42_" class="st45" d="M434.2,173.7c2.1,7.2,2.6,15,1.9,22.7c-0.7,7.7-2.6,15.4-5.2,22.9
					c-5.3,15-13.5,29.5-23.2,43.3c-4.9,6.9-10.3,13.6-15.9,20.2c-5.7,6.6-11.7,13-18,19.1c-6.3,6.2-12.9,12.2-19.7,17.9
					c-1.7,1.5-3.4,2.9-5.2,4.3c-1.7,1.4-3.4,2.8-5.2,4.2l-5.4,4.1l-5.3,3.9c-7.3,5.3-14.6,10.3-22.2,15c-7.6,4.7-15.2,9.2-23,13.3
					C272.1,373,256,380,240,385.3c-16.1,5.2-32.3,8.8-48.1,9.7c-2.5,0.1-5,0.2-7.4,0.2c-5.4,0-10.7-0.4-15.8-1.2
					c-7.5-1.2-14.9-3.4-21.4-6.8c-0.8-0.4-1.6-0.9-2.4-1.3c-0.8-0.5-1.5-1-2.3-1.5c-0.8-0.5-1.5-1-2.3-1.5c-0.7-0.6-1.4-1.1-2.1-1.7
					l-1.1-0.8c-0.4-0.3-0.7-0.6-1.1-1c-0.7-0.7-1.4-1.3-2-2c-0.3-0.3-0.7-0.7-0.9-1c-0.2-0.3-0.5-0.6-0.7-0.9
					c-0.4-0.6-0.9-1.3-1.3-1.9l-1.5-2.4c-0.4-0.7-0.8-1.5-1.2-2.2c-0.3-0.8-0.7-1.5-1-2.3c-0.3-0.8-0.7-1.5-0.9-2.3
					c-0.5-1.5-1.1-3-1.4-4.5c-0.2-0.8-0.4-1.5-0.5-2.2c-0.2-0.7-0.2-1.5-0.4-2.2c-0.9-5.9-0.7-11.3,0-16.1c0.6-4.9,1.8-9.1,2.9-12.9
					c1.2-3.8,2.5-7.1,3.7-9.8c0.6-1.4,1.2-2.7,1.8-3.8c0.6-1.1,1.1-2.2,1.6-3.1c0.9-1.9,1.8-3.2,2.3-4.2c0.5-0.9,0.8-1.4,0.8-1.4
					c0,0-0.2,0.5-0.5,1.5c-0.3,1-0.8,2.5-1.4,4.5c-1.2,3.9-2.7,9.8-3.8,17.3c-0.4,3.7-0.9,7.9-0.6,12.3c0.2,4.4,0.7,9.1,2.2,13.8
					c0.2,0.6,0.3,1.2,0.6,1.7c0.2,0.6,0.5,1.1,0.7,1.7c0.4,1.2,1.1,2.2,1.6,3.3c0.3,0.6,0.6,1.1,1,1.6c0.3,0.5,0.7,1.1,1,1.6
					c0.4,0.5,0.8,1,1.2,1.5l0.6,0.8c1,1.1,1.5,1.6,2,2.2c0.3,0.3,0.5,0.6,0.8,0.9c0.3,0.3,0.5,0.4,0.7,0.6c0.4,0.4,0.9,0.8,1.3,1.3
					c0.2,0.2,0.4,0.4,0.6,0.7l0.8,0.7c0.5,0.4,1,0.9,1.6,1.3c0.5,0.5,1.1,0.8,1.7,1.2c0.6,0.4,1.2,0.8,1.8,1.2
					c0.6,0.3,1.3,0.7,1.9,1c5.1,2.7,11.2,4.6,17.7,5.6c4.5,0.7,9.1,1,14,1c2.2,0,4.5-0.1,6.8-0.2c14.4-0.9,29.7-4.2,45-9.1
					c15.3-5.1,30.8-11.7,45.8-19.7c7.6-4,15-8.3,22.3-12.9c7.3-4.6,14.5-9.5,21.5-14.6l5.3-3.9l5.1-3.9c1.7-1.3,3.4-2.7,5.1-4
					c1.7-1.4,3.4-2.7,5-4.1c6.6-5.5,13-11.4,19.1-17.3c6.1-5.9,11.9-12.1,17.3-18.4c5.4-6.3,10.6-12.7,15.2-19.3
					c9.3-13.1,16.9-26.8,21.7-40.3c2.4-6.8,4-13.5,4.6-20c0.6-6.5,0.1-12.7-1.5-18.2c-0.1-0.7-0.5-1.3-0.7-2c-0.2-0.7-0.5-1.3-0.7-2
					c-0.3-0.6-0.6-1.2-0.9-1.8l-0.5-0.9c-0.1-0.3-0.3-0.6-0.5-0.9c-0.4-0.5-0.8-1.1-1.1-1.6l-0.5-0.8c-1.5-1.8-2.4-3.2-3.1-4
					c-0.4-0.5-0.7-0.9-1.1-1.4c-0.4-0.4-0.9-0.9-1.3-1.4c-0.5-0.4-0.9-0.9-1.4-1.3c-0.5-0.4-1-0.8-1.5-1.2c-0.9-0.9-2-1.5-3-2.2
					c-1-0.8-2.1-1.3-3.2-1.9c-4.3-2.4-8.8-4-13.1-5.3c-2.2-0.5-4.2-1.1-6.3-1.5c-1-0.2-2-0.4-3-0.6c-1-0.1-1.9-0.3-2.9-0.4
					c-7.5-1-13.6-1.1-17.7-1.1c-4.1,0.1-6.2,0.1-6.4,0.1c0,0,0.5-0.1,1.6-0.4c1-0.2,2.6-0.6,4.6-1c4.1-0.8,10.1-1.9,18-2.2
					c1,0,2-0.1,3.1-0.1c1,0,2.1,0,3.2,0c2.4,0,4.6,0.2,7,0.4c4.8,0.5,10.1,1.6,15.6,3.6c1.4,0.5,2.8,1,4.1,1.7
					c1.4,0.7,2.8,1.3,4.2,2.2c0.7,0.4,1.4,0.8,2.1,1.2c0.7,0.4,1.3,1,2,1.4c0.7,0.5,1.4,1,2,1.5c0.7,0.6,1.4,1.2,2,1.8
					c1.5,1.3,2.4,2.4,3.3,3.6l1.6,2.3c0.5,0.8,0.9,1.5,1.4,2.3c0.9,1.6,1.6,3.3,2.4,5c0.3,0.9,0.6,1.7,1,2.6
					C433.6,171.9,434,172.8,434.2,173.7z M417.7,167.1C417.7,167.1,417.7,167.2,417.7,167.1C417.7,167.2,417.7,167.2,417.7,167.1
					L417.7,167.1"/>
			</g>
		</g>
	</g>
</g>
<g id="XMLID_18_">
	<g id="XMLID_45_">
		<g id="XMLID_51_">
			<path id="XMLID_79_" class="st2" d="M448.1,309.1c0.3,3.5,0.6,7,0.9,10.5l-4.6-3.8l-1.1,1.3l-1.5,1.8l-2.6,3l-2.7,3
				c-14.4,15.9-30.2,30.4-46.8,43.8c-8.3,6.7-16.8,13.1-25.6,19.1c-2.2,1.5-4.4,3-6.7,4.4c-2.2,1.4-4.4,2.9-6.7,4.3l-6.7,4.3
				l-6.8,4.2c-9.1,5.5-18.2,10.9-27.6,15.8c-9.4,4.9-18.9,9.7-28.6,13.9c-19.4,8.5-39.5,15.8-60.2,20.6c-10.4,2.4-20.9,4.2-31.6,5.1
				c-3.9,0.3-7.7,0.5-11.6,0.5c-1.5,0-3,0-4.5-0.1c-5.4-0.2-10.8-0.7-16.1-1.7c-2.7-0.5-5.3-1.1-7.9-1.9c-2.6-0.8-5.2-1.7-7.7-2.8
				c-5-2.2-9.8-5.2-13.9-9c-4-3.8-7.4-8.4-9.6-13.5c-1.1-2.5-2-5.2-2.6-7.8c-0.6-2.7-1-5.4-1.1-8.1c-0.4-5.4,0.1-10.8,1.1-16.1
				c1-5.3,2.4-10.4,4.2-15.4c3.6-10,8.4-19.4,13.9-28.3c0.9-1.4,1.8-2.8,2.7-4.2c0.7-1.2,1.5-2.3,2.3-3.5c-1.5,2.2-2.8,4.5-4.1,6.8
				c1.5-2.5,3.1-4.9,4.5-7.5c-0.8,1.4-1.7,2.8-2.5,4.3c-0.8,1.4-1.6,2.9-2.4,4.3c-5,9.2-9.3,18.8-12.3,28.7
				c-3,9.9-4.7,20.3-3.6,30.4c0.5,5,1.9,9.9,4,14.3c2.1,4.5,5.2,8.4,8.9,11.6c3.7,3.2,8,5.7,12.7,7.6c2.3,0.9,4.7,1.7,7.1,2.3
				c2.4,0.6,4.9,1.1,7.4,1.5c4.9,0.8,9.9,1.1,15,1.1c5.3,0,10.4-0.3,15.5-0.9c10.2-1.1,20.3-3.2,30.3-5.9c19.9-5.3,39.2-13,57.9-22
				c18.6-9,36.6-19.4,53.8-30.9c8.7-5.7,16.9-11.9,25.1-18.3c8.1-6.4,16.2-12.8,24-19.5c15.6-13.4,30.5-27.8,44-43.1l2.5-2.9
				l2.5-2.9l0.9-1.1l1.5-1.8l-4.6-3.8c3.3-0.3,6.7-0.5,10.2-0.9c3.4-0.4,6.8-0.8,10.3-1.2C447.3,302.1,447.7,305.6,448.1,309.1z"/>
		</g>
	</g>
</g>
<g id="XMLID_10_">
	<g id="XMLID_47_">
		<g id="XMLID_80_">
			<path id="XMLID_85_" class="st2" d="M497.8,183.6c2,9.2,1.9,18.7,0.7,27.9c-0.6,4.6-1.5,9.1-2.6,13.6c-1.1,4.5-2.4,8.9-3.9,13.2
				c-3,8.7-6.6,17-10.6,25.2c-4,8.2-8.3,16.2-12.7,24.2l-3.3,6c-1.1,2-2.2,4-3.3,6.1c-0.6-3-1.1-5.8-1.5-8.5c-0.4-2.7-0.7-5.4-1-7.9
				c-2.5,0.6-5.1,1.1-7.7,1.6c-2.7,0.4-5.5,0.7-8.4,0.8c0.8-0.7,1.5-1.5,2.3-2.3c0.7-0.8,1.5-1.5,2.2-2.3c1.5-1.6,2.9-3.2,4.3-4.8
				c5.6-6.5,10.8-13.3,15.4-20.5c4.6-7.2,8.7-14.6,12.2-22.3c3.5-7.7,6.3-15.7,8-23.8c1.7-8.1,2.4-16.5,1.2-24.6
				c-1.1-8.1-4-15.9-8.9-22.6c-2.3-3.4-5.2-6.4-8.4-9.2l-2.4-2c-0.8-0.7-1.7-1.2-2.6-1.9c-1.7-1.3-3.6-2.3-5.4-3.4
				c-0.9-0.5-1.9-1-2.8-1.5c-1-0.5-1.9-1-2.9-1.4c-2-0.9-3.9-1.8-5.9-2.5l-3-1.1l-3.1-1c-2.1-0.7-4.2-1.2-6.3-1.8l-1.6-0.4l-1.6-0.4
				l-0.9-0.2l-1-0.2l-2.1-0.5l-0.1,0.7c-1.6-0.5-3.1-0.9-4.7-1.3c-1.6-0.4-3.2-0.7-4.8-1c-1.6-0.3-3.2-0.6-4.9-0.7
				c-1.6-0.2-3.3-0.3-4.9-0.4c1.6,0.1,3.3,0.1,4.9,0.1l4.9,0c1,0,1.6,0,2.2,0c0.7,0,1.5,0,2.2,0c0.2,0,0.3,0,0.5,0
				c0.1,0,0.3,0,0.4,0c1.5,0,3,0,4.6-0.1l-0.1,0.7l2.2,0.3l1.1,0.1l0.9,0.1l1.7,0.2l1.6,0.3c8.8,1.4,17.5,3.8,25.7,7.6
				c8.2,3.9,15.9,9.3,21.9,16.6C491.8,165.5,495.9,174.4,497.8,183.6z"/>
		</g>
	</g>
</g>
<g id="XMLID_11_">
	<g id="XMLID_36_">
		<g id="XMLID_60_">
			<g id="XMLID_62_">
				<polygon id="XMLID_63_" class="st46" points="227.5,189.3 188.7,158.1 206.2,204.7 				"/>
			</g>
		</g>
	</g>
</g>
<line id="XMLID_17_" class="st0" x1="196.4" y1="168.7" x2="216.8" y2="197"/>
</svg>
